<svg width="151" height="15" viewBox="0 0 151 15" fill="none" xmlns="http://www.w3.org/2000/svg">
<rect y="7" width="151" height="8" fill="#314A71" fill-opacity="0.61"/>
<path d="M10.18 11.78H14.78V14H7.38V0.0399997H10.18V11.78ZM19.3597 0.0399997V14H16.5597V0.0399997H19.3597ZM34.0661 14H31.2661L24.9261 4.42V14H22.1261V0.0199988H24.9261L31.2661 9.62V0.0199988H34.0661V14ZM44.7131 14L39.6331 7.78V14H36.8331V0.0399997H39.6331V6.3L44.7131 0.0399997H48.0931L42.3331 6.96L48.2531 14H44.7131ZM52.8948 2.3V5.8H57.5948V8.02H52.8948V11.72H58.1948V14H50.0948V0.0199988H58.1948V2.3H52.8948ZM65.6194 0.0399997C67.086 0.0399997 68.3727 0.326666 69.4794 0.899999C70.5994 1.47333 71.4594 2.29333 72.0594 3.36C72.6727 4.41333 72.9794 5.64 72.9794 7.04C72.9794 8.44 72.6727 9.66667 72.0594 10.72C71.4594 11.76 70.5994 12.5667 69.4794 13.14C68.3727 13.7133 67.086 14 65.6194 14H60.7394V0.0399997H65.6194ZM65.5194 11.62C66.986 11.62 68.1194 11.22 68.9194 10.42C69.7194 9.62 70.1194 8.49333 70.1194 7.04C70.1194 5.58667 69.7194 4.45333 68.9194 3.64C68.1194 2.81333 66.986 2.4 65.5194 2.4H63.5394V11.62H65.5194ZM77.8753 0.0399997V14H75.0753V0.0399997H77.8753ZM92.5817 14H89.7817L83.4417 4.42V14H80.6417V0.0199988H83.4417L89.7817 9.62V0.0199988H92.5817V14Z" fill="#EFEFEF"/>
</svg>
