<svg width="151" height="16" viewBox="0 0 151 16" fill="none" xmlns="http://www.w3.org/2000/svg">
<rect y="8" width="151" height="8" fill="#314A71" fill-opacity="0.61"/>
<path d="M16.56 5.36C16.56 6.10667 16.38 6.80667 16.02 7.46C15.6733 8.11333 15.12 8.64 14.36 9.04C13.6133 9.44 12.6667 9.64 11.52 9.64H9.18V15H6.38V1.04H11.52C12.6 1.04 13.52 1.22667 14.28 1.6C15.04 1.97333 15.6067 2.48667 15.98 3.14C16.3667 3.79333 16.56 4.53333 16.56 5.36ZM11.4 7.38C12.1733 7.38 12.7467 7.20667 13.12 6.86C13.4933 6.5 13.68 6 13.68 5.36C13.68 4 12.92 3.32 11.4 3.32H9.18V7.38H11.4ZM25.028 15.14C23.7213 15.14 22.5213 14.8333 21.428 14.22C20.3346 13.6067 19.468 12.76 18.828 11.68C18.188 10.5867 17.868 9.35333 17.868 7.98C17.868 6.62 18.188 5.4 18.828 4.32C19.468 3.22667 20.3346 2.37333 21.428 1.76C22.5213 1.14667 23.7213 0.84 25.028 0.84C26.348 0.84 27.548 1.14667 28.628 1.76C29.7213 2.37333 30.5813 3.22667 31.208 4.32C31.848 5.4 32.168 6.62 32.168 7.98C32.168 9.35333 31.848 10.5867 31.208 11.68C30.5813 12.76 29.7213 13.6067 28.628 14.22C27.5346 14.8333 26.3346 15.14 25.028 15.14ZM25.028 12.64C25.868 12.64 26.608 12.4533 27.248 12.08C27.888 11.6933 28.388 11.1467 28.748 10.44C29.108 9.73333 29.288 8.91333 29.288 7.98C29.288 7.04667 29.108 6.23333 28.748 5.54C28.388 4.83333 27.888 4.29333 27.248 3.92C26.608 3.54667 25.868 3.36 25.028 3.36C24.188 3.36 23.4413 3.54667 22.788 3.92C22.148 4.29333 21.648 4.83333 21.288 5.54C20.928 6.23333 20.748 7.04667 20.748 7.98C20.748 8.91333 20.928 9.73333 21.288 10.44C21.648 11.1467 22.148 11.6933 22.788 12.08C23.4413 12.4533 24.188 12.64 25.028 12.64ZM41.4511 15L38.3711 9.56H37.0511V15H34.2511V1.04H39.4911C40.5711 1.04 41.4911 1.23333 42.2511 1.62C43.0111 1.99333 43.5778 2.50667 43.9511 3.16C44.3378 3.8 44.5311 4.52 44.5311 5.32C44.5311 6.24 44.2644 7.07333 43.7311 7.82C43.1978 8.55333 42.4044 9.06 41.3511 9.34L44.6911 15H41.4511ZM37.0511 7.46H39.3911C40.1511 7.46 40.7178 7.28 41.0911 6.92C41.4644 6.54667 41.6511 6.03333 41.6511 5.38C41.6511 4.74 41.4644 4.24667 41.0911 3.9C40.7178 3.54 40.1511 3.36 39.3911 3.36H37.0511V7.46ZM56.5636 1.04V3.3H52.8436V15H50.0436V3.3H46.3236V1.04H56.5636ZM61.4066 1.04V15H58.6066V1.04H61.4066ZM72.793 1.04V3.3H66.973V6.88H71.433V9.1H66.973V15H64.173V1.04H72.793ZM81.2584 15.14C79.9518 15.14 78.7518 14.8333 77.6584 14.22C76.5651 13.6067 75.6984 12.76 75.0584 11.68C74.4184 10.5867 74.0984 9.35333 74.0984 7.98C74.0984 6.62 74.4184 5.4 75.0584 4.32C75.6984 3.22667 76.5651 2.37333 77.6584 1.76C78.7518 1.14667 79.9518 0.84 81.2584 0.84C82.5784 0.84 83.7784 1.14667 84.8584 1.76C85.9518 2.37333 86.8118 3.22667 87.4384 4.32C88.0784 5.4 88.3984 6.62 88.3984 7.98C88.3984 9.35333 88.0784 10.5867 87.4384 11.68C86.8118 12.76 85.9518 13.6067 84.8584 14.22C83.7651 14.8333 82.5651 15.14 81.2584 15.14ZM81.2584 12.64C82.0984 12.64 82.8384 12.4533 83.4784 12.08C84.1184 11.6933 84.6184 11.1467 84.9784 10.44C85.3384 9.73333 85.5184 8.91333 85.5184 7.98C85.5184 7.04667 85.3384 6.23333 84.9784 5.54C84.6184 4.83333 84.1184 4.29333 83.4784 3.92C82.8384 3.54667 82.0984 3.36 81.2584 3.36C80.4184 3.36 79.6718 3.54667 79.0184 3.92C78.3784 4.29333 77.8784 4.83333 77.5184 5.54C77.1584 6.23333 76.9784 7.04667 76.9784 7.98C76.9784 8.91333 77.1584 9.73333 77.5184 10.44C77.8784 11.1467 78.3784 11.6933 79.0184 12.08C79.6718 12.4533 80.4184 12.64 81.2584 12.64ZM93.2816 12.78H97.8816V15H90.4816V1.04H93.2816V12.78ZM102.461 1.04V15H99.6613V1.04H102.461ZM111.708 15.14C110.401 15.14 109.201 14.8333 108.108 14.22C107.014 13.6067 106.148 12.76 105.508 11.68C104.868 10.5867 104.548 9.35333 104.548 7.98C104.548 6.62 104.868 5.4 105.508 4.32C106.148 3.22667 107.014 2.37333 108.108 1.76C109.201 1.14667 110.401 0.84 111.708 0.84C113.028 0.84 114.228 1.14667 115.308 1.76C116.401 2.37333 117.261 3.22667 117.888 4.32C118.528 5.4 118.848 6.62 118.848 7.98C118.848 9.35333 118.528 10.5867 117.888 11.68C117.261 12.76 116.401 13.6067 115.308 14.22C114.214 14.8333 113.014 15.14 111.708 15.14ZM111.708 12.64C112.548 12.64 113.288 12.4533 113.928 12.08C114.568 11.6933 115.068 11.1467 115.428 10.44C115.788 9.73333 115.968 8.91333 115.968 7.98C115.968 7.04667 115.788 6.23333 115.428 5.54C115.068 4.83333 114.568 4.29333 113.928 3.92C113.288 3.54667 112.548 3.36 111.708 3.36C110.868 3.36 110.121 3.54667 109.468 3.92C108.828 4.29333 108.328 4.83333 107.968 5.54C107.608 6.23333 107.428 7.04667 107.428 7.98C107.428 8.91333 107.608 9.73333 107.968 10.44C108.328 11.1467 108.828 11.6933 109.468 12.08C110.121 12.4533 110.868 12.64 111.708 12.64Z" fill="#EFEFEF"/>
</svg>
