<svg width="764" height="142" viewBox="0 0 764 142" fill="none" xmlns="http://www.w3.org/2000/svg">
<path d="M19.2 118.896L15.096 132H13.416L9.792 121.008L6.168 132H4.464L0.36 118.896H2.064L5.328 130.296L9 118.896H10.68L14.304 130.32L17.544 118.896H19.2ZM37.9063 124.776C37.9063 125.352 37.8903 125.792 37.8583 126.096H26.9863C27.0343 127.088 27.2743 127.936 27.7063 128.64C28.1383 129.344 28.7063 129.88 29.4103 130.248C30.1143 130.6 30.8823 130.776 31.7143 130.776C32.8023 130.776 33.7143 130.512 34.4503 129.984C35.2023 129.456 35.6983 128.744 35.9383 127.848H37.7143C37.3943 129.128 36.7063 130.176 35.6503 130.992C34.6103 131.792 33.2983 132.192 31.7143 132.192C30.4823 132.192 29.3783 131.92 28.4023 131.376C27.4263 130.816 26.6583 130.032 26.0983 129.024C25.5543 128 25.2823 126.808 25.2823 125.448C25.2823 124.088 25.5543 122.896 26.0983 121.872C26.6423 120.848 27.4023 120.064 28.3783 119.52C29.3543 118.976 30.4663 118.704 31.7143 118.704C32.9623 118.704 34.0503 118.976 34.9783 119.52C35.9223 120.064 36.6423 120.8 37.1383 121.728C37.6503 122.64 37.9063 123.656 37.9063 124.776ZM36.2023 124.728C36.2183 123.752 36.0183 122.92 35.6023 122.232C35.2023 121.544 34.6503 121.024 33.9463 120.672C33.2423 120.32 32.4743 120.144 31.6423 120.144C30.3943 120.144 29.3303 120.544 28.4503 121.344C27.5703 122.144 27.0823 123.272 26.9863 124.728H36.2023ZM47.196 121.8C47.628 120.888 48.292 120.144 49.188 119.568C50.1 118.992 51.172 118.704 52.404 118.704C53.604 118.704 54.676 118.984 55.62 119.544C56.564 120.088 57.3 120.872 57.828 121.896C58.372 122.904 58.644 124.08 58.644 125.424C58.644 126.768 58.372 127.952 57.828 128.976C57.3 130 56.556 130.792 55.596 131.352C54.652 131.912 53.588 132.192 52.404 132.192C51.156 132.192 50.076 131.912 49.164 131.352C48.268 130.776 47.612 130.032 47.196 129.12V132H45.54V114.24H47.196V121.8ZM56.94 125.424C56.94 124.336 56.724 123.4 56.292 122.616C55.876 121.816 55.3 121.208 54.564 120.792C53.828 120.376 52.996 120.168 52.068 120.168C51.172 120.168 50.348 120.384 49.596 120.816C48.86 121.248 48.276 121.864 47.844 122.664C47.412 123.464 47.196 124.392 47.196 125.448C47.196 126.504 47.412 127.432 47.844 128.232C48.276 129.032 48.86 129.648 49.596 130.08C50.348 130.512 51.172 130.728 52.068 130.728C52.996 130.728 53.828 130.52 54.564 130.104C55.3 129.672 55.876 129.056 56.292 128.256C56.724 127.44 56.94 126.496 56.94 125.424ZM76.6732 125.424C76.6732 124.08 76.9452 122.904 77.4892 121.896C78.0332 120.872 78.7772 120.088 79.7212 119.544C80.6812 118.984 81.7612 118.704 82.9612 118.704C84.1132 118.704 85.1532 118.984 86.0812 119.544C87.0092 120.104 87.6892 120.832 88.1212 121.728V114.24H89.8012V132H88.1212V129.072C87.7212 129.984 87.0652 130.736 86.1532 131.328C85.2412 131.904 84.1692 132.192 82.9372 132.192C81.7372 132.192 80.6572 131.912 79.6972 131.352C78.7532 130.792 78.0092 130 77.4652 128.976C76.9372 127.952 76.6732 126.768 76.6732 125.424ZM88.1212 125.448C88.1212 124.392 87.9052 123.464 87.4732 122.664C87.0412 121.864 86.4492 121.248 85.6972 120.816C84.9612 120.384 84.1452 120.168 83.2492 120.168C82.3212 120.168 81.4892 120.376 80.7532 120.792C80.0172 121.208 79.4332 121.816 79.0012 122.616C78.5852 123.4 78.3772 124.336 78.3772 125.424C78.3772 126.496 78.5852 127.44 79.0012 128.256C79.4332 129.056 80.0172 129.672 80.7532 130.104C81.4892 130.52 82.3212 130.728 83.2492 130.728C84.1452 130.728 84.9612 130.512 85.6972 130.08C86.4492 129.648 87.0412 129.032 87.4732 128.232C87.9052 127.432 88.1212 126.504 88.1212 125.448ZM110.053 124.776C110.053 125.352 110.037 125.792 110.005 126.096H99.1326C99.1806 127.088 99.4206 127.936 99.8526 128.64C100.285 129.344 100.853 129.88 101.557 130.248C102.261 130.6 103.029 130.776 103.861 130.776C104.949 130.776 105.861 130.512 106.597 129.984C107.349 129.456 107.845 128.744 108.085 127.848H109.861C109.541 129.128 108.853 130.176 107.797 130.992C106.757 131.792 105.445 132.192 103.861 132.192C102.629 132.192 101.525 131.92 100.549 131.376C99.5726 130.816 98.8046 130.032 98.2446 129.024C97.7006 128 97.4286 126.808 97.4286 125.448C97.4286 124.088 97.7006 122.896 98.2446 121.872C98.7886 120.848 99.5486 120.064 100.525 119.52C101.501 118.976 102.613 118.704 103.861 118.704C105.109 118.704 106.197 118.976 107.125 119.52C108.069 120.064 108.789 120.8 109.285 121.728C109.797 122.64 110.053 123.656 110.053 124.776ZM108.349 124.728C108.365 123.752 108.165 122.92 107.749 122.232C107.349 121.544 106.797 121.024 106.093 120.672C105.389 120.32 104.621 120.144 103.789 120.144C102.541 120.144 101.477 120.544 100.597 121.344C99.7166 122.144 99.2286 123.272 99.1326 124.728H108.349ZM122.342 130.368L126.758 118.896H128.534L123.278 132H121.382L116.126 118.896H117.926L122.342 130.368ZM147.227 124.776C147.227 125.352 147.211 125.792 147.179 126.096H136.307C136.355 127.088 136.595 127.936 137.027 128.64C137.459 129.344 138.027 129.88 138.731 130.248C139.435 130.6 140.203 130.776 141.035 130.776C142.123 130.776 143.035 130.512 143.771 129.984C144.523 129.456 145.019 128.744 145.259 127.848H147.035C146.715 129.128 146.027 130.176 144.971 130.992C143.931 131.792 142.619 132.192 141.035 132.192C139.803 132.192 138.699 131.92 137.723 131.376C136.747 130.816 135.979 130.032 135.419 129.024C134.875 128 134.603 126.808 134.603 125.448C134.603 124.088 134.875 122.896 135.419 121.872C135.963 120.848 136.723 120.064 137.699 119.52C138.675 118.976 139.787 118.704 141.035 118.704C142.283 118.704 143.371 118.976 144.299 119.52C145.243 120.064 145.963 120.8 146.459 121.728C146.971 122.64 147.227 123.656 147.227 124.776ZM145.523 124.728C145.539 123.752 145.339 122.92 144.923 122.232C144.523 121.544 143.971 121.024 143.267 120.672C142.563 120.32 141.795 120.144 140.963 120.144C139.715 120.144 138.651 120.544 137.771 121.344C136.891 122.144 136.403 123.272 136.307 124.728H145.523ZM156.541 114.24V132H154.861V114.24H156.541ZM170.641 132.192C169.409 132.192 168.297 131.92 167.305 131.376C166.329 130.816 165.553 130.032 164.977 129.024C164.417 128 164.137 126.808 164.137 125.448C164.137 124.088 164.425 122.904 165.001 121.896C165.577 120.872 166.361 120.088 167.353 119.544C168.345 118.984 169.457 118.704 170.689 118.704C171.921 118.704 173.033 118.984 174.025 119.544C175.033 120.088 175.817 120.872 176.377 121.896C176.953 122.904 177.241 124.088 177.241 125.448C177.241 126.792 176.953 127.976 176.377 129C175.801 130.024 175.009 130.816 174.001 131.376C172.993 131.92 171.873 132.192 170.641 132.192ZM170.641 130.728C171.505 130.728 172.305 130.536 173.041 130.152C173.777 129.752 174.369 129.16 174.817 128.376C175.281 127.576 175.513 126.6 175.513 125.448C175.513 124.296 175.289 123.328 174.841 122.544C174.393 121.744 173.801 121.152 173.065 120.768C172.329 120.368 171.529 120.168 170.665 120.168C169.801 120.168 169.001 120.368 168.265 120.768C167.529 121.152 166.937 121.744 166.489 122.544C166.057 123.328 165.841 124.296 165.841 125.448C165.841 126.6 166.057 127.576 166.489 128.376C166.937 129.16 167.521 129.752 168.241 130.152C168.977 130.536 169.777 130.728 170.641 130.728ZM186.52 121.776C186.936 120.896 187.592 120.168 188.488 119.592C189.4 119 190.48 118.704 191.728 118.704C192.912 118.704 193.976 118.984 194.92 119.544C195.88 120.088 196.624 120.872 197.152 121.896C197.696 122.904 197.968 124.08 197.968 125.424C197.968 126.768 197.696 127.952 197.152 128.976C196.624 130 195.88 130.792 194.92 131.352C193.976 131.912 192.912 132.192 191.728 132.192C190.496 132.192 189.424 131.904 188.512 131.328C187.6 130.736 186.936 130 186.52 129.12V138.192H184.864V118.896H186.52V121.776ZM196.264 125.424C196.264 124.336 196.048 123.4 195.616 122.616C195.2 121.816 194.624 121.208 193.888 120.792C193.152 120.376 192.32 120.168 191.392 120.168C190.496 120.168 189.672 120.384 188.92 120.816C188.184 121.248 187.6 121.864 187.168 122.664C186.736 123.464 186.52 124.392 186.52 125.448C186.52 126.504 186.736 127.432 187.168 128.232C187.6 129.032 188.184 129.648 188.92 130.08C189.672 130.512 190.496 130.728 191.392 130.728C192.32 130.728 193.152 130.52 193.888 130.104C194.624 129.672 195.2 129.056 195.616 128.256C196.048 127.44 196.264 126.496 196.264 125.424ZM217.475 124.776C217.475 125.352 217.459 125.792 217.427 126.096H206.555C206.603 127.088 206.843 127.936 207.275 128.64C207.707 129.344 208.275 129.88 208.979 130.248C209.683 130.6 210.451 130.776 211.283 130.776C212.371 130.776 213.283 130.512 214.019 129.984C214.771 129.456 215.267 128.744 215.507 127.848H217.283C216.963 129.128 216.275 130.176 215.219 130.992C214.179 131.792 212.867 132.192 211.283 132.192C210.051 132.192 208.947 131.92 207.971 131.376C206.995 130.816 206.227 130.032 205.667 129.024C205.123 128 204.851 126.808 204.851 125.448C204.851 124.088 205.123 122.896 205.667 121.872C206.211 120.848 206.971 120.064 207.947 119.52C208.923 118.976 210.035 118.704 211.283 118.704C212.531 118.704 213.619 118.976 214.547 119.52C215.491 120.064 216.211 120.8 216.707 121.728C217.219 122.64 217.475 123.656 217.475 124.776ZM215.771 124.728C215.787 123.752 215.587 122.92 215.171 122.232C214.771 121.544 214.219 121.024 213.515 120.672C212.811 120.32 212.043 120.144 211.211 120.144C209.963 120.144 208.899 120.544 208.019 121.344C207.139 122.144 206.651 123.272 206.555 124.728H215.771ZM226.789 121.224C227.157 120.408 227.717 119.776 228.469 119.328C229.237 118.88 230.173 118.656 231.277 118.656V120.408H230.821C229.605 120.408 228.629 120.736 227.893 121.392C227.157 122.048 226.789 123.144 226.789 124.68V132H225.109V118.896H226.789V121.224Z" fill="#7095CC"/>
<path d="M4.512 47V13.4H10.752V41.72H28.32V47H4.512ZM37.0864 27.368H53.7904V32.504H37.0864V27.368ZM37.5664 41.768H56.5264V47H31.3264V13.4H55.8544V18.632H37.5664V41.768ZM77.3066 47.48C74.6826 47.48 72.2666 47.048 70.0586 46.184C67.8506 45.32 65.9306 44.12 64.2986 42.584C62.6666 41.016 61.4026 39.192 60.5066 37.112C59.6106 35 59.1626 32.696 59.1626 30.2C59.1626 27.704 59.6106 25.416 60.5066 23.336C61.4026 21.224 62.6666 19.4 64.2986 17.864C65.9306 16.296 67.8506 15.08 70.0586 14.216C72.2666 13.352 74.6666 12.92 77.2586 12.92C79.8826 12.92 82.2826 13.352 84.4586 14.216C86.6666 15.08 88.5866 16.296 90.2186 17.864C91.8506 19.4 93.1146 21.224 94.0106 23.336C94.9066 25.416 95.3546 27.704 95.3546 30.2C95.3546 32.696 94.9066 35 94.0106 37.112C93.1146 39.224 91.8506 41.048 90.2186 42.584C88.5866 44.12 86.6666 45.32 84.4586 46.184C82.2826 47.048 79.8986 47.48 77.3066 47.48ZM77.2586 42.008C78.9546 42.008 80.5226 41.72 81.9626 41.144C83.4026 40.568 84.6506 39.752 85.7066 38.696C86.7626 37.608 87.5786 36.36 88.1546 34.952C88.7626 33.512 89.0666 31.928 89.0666 30.2C89.0666 28.472 88.7626 26.904 88.1546 25.496C87.5786 24.056 86.7626 22.808 85.7066 21.752C84.6506 20.664 83.4026 19.832 81.9626 19.256C80.5226 18.68 78.9546 18.392 77.2586 18.392C75.5626 18.392 73.9946 18.68 72.5546 19.256C71.1466 19.832 69.8986 20.664 68.8106 21.752C67.7546 22.808 66.9226 24.056 66.3146 25.496C65.7386 26.904 65.4506 28.472 65.4506 30.2C65.4506 31.896 65.7386 33.464 66.3146 34.904C66.9226 36.344 67.7546 37.608 68.8106 38.696C69.8666 39.752 71.1146 40.568 72.5546 41.144C73.9946 41.72 75.5626 42.008 77.2586 42.008ZM100.049 47V13.4H105.185L126.257 39.272H123.713V13.4H129.905V47H124.769L103.697 21.128H106.241V47H100.049ZM132.236 47L147.356 13.4H153.5L168.668 47H162.14L149.132 16.712H151.628L138.668 47H132.236ZM139.196 39.224L140.876 34.328H159.02L160.7 39.224H139.196ZM171.021 47V13.4H184.845C187.821 13.4 190.365 13.88 192.477 14.84C194.621 15.8 196.269 17.176 197.421 18.968C198.573 20.76 199.149 22.888 199.149 25.352C199.149 27.816 198.573 29.944 197.421 31.736C196.269 33.496 194.621 34.856 192.477 35.816C190.365 36.744 187.821 37.208 184.845 37.208H174.477L177.261 34.376V47H171.021ZM193.005 47L184.509 34.808H191.181L199.725 47H193.005ZM177.261 35.048L174.477 32.072H184.557C187.309 32.072 189.373 31.48 190.749 30.296C192.157 29.112 192.861 27.464 192.861 25.352C192.861 23.208 192.157 21.56 190.749 20.408C189.373 19.256 187.309 18.68 184.557 18.68H174.477L177.261 15.608V35.048ZM204.211 47V13.4H218.899C222.547 13.4 225.747 14.104 228.499 15.512C231.251 16.92 233.395 18.872 234.931 21.368C236.467 23.864 237.235 26.808 237.235 30.2C237.235 33.56 236.467 36.504 234.931 39.032C233.395 41.528 231.251 43.48 228.499 44.888C225.747 46.296 222.547 47 218.899 47H204.211ZM210.451 41.72H218.611C221.139 41.72 223.315 41.24 225.139 40.28C226.995 39.32 228.419 37.976 229.411 36.248C230.435 34.52 230.947 32.504 230.947 30.2C230.947 27.864 230.435 25.848 229.411 24.152C228.419 22.424 226.995 21.08 225.139 20.12C223.315 19.16 221.139 18.68 218.611 18.68H210.451V41.72ZM257.691 47.48C255.067 47.48 252.651 47.048 250.443 46.184C248.235 45.32 246.315 44.12 244.683 42.584C243.051 41.016 241.787 39.192 240.891 37.112C239.995 35 239.547 32.696 239.547 30.2C239.547 27.704 239.995 25.416 240.891 23.336C241.787 21.224 243.051 19.4 244.683 17.864C246.315 16.296 248.235 15.08 250.443 14.216C252.651 13.352 255.051 12.92 257.643 12.92C260.267 12.92 262.667 13.352 264.843 14.216C267.051 15.08 268.971 16.296 270.603 17.864C272.235 19.4 273.499 21.224 274.395 23.336C275.291 25.416 275.739 27.704 275.739 30.2C275.739 32.696 275.291 35 274.395 37.112C273.499 39.224 272.235 41.048 270.603 42.584C268.971 44.12 267.051 45.32 264.843 46.184C262.667 47.048 260.283 47.48 257.691 47.48ZM257.643 42.008C259.339 42.008 260.907 41.72 262.347 41.144C263.787 40.568 265.035 39.752 266.091 38.696C267.147 37.608 267.963 36.36 268.539 34.952C269.147 33.512 269.451 31.928 269.451 30.2C269.451 28.472 269.147 26.904 268.539 25.496C267.963 24.056 267.147 22.808 266.091 21.752C265.035 20.664 263.787 19.832 262.347 19.256C260.907 18.68 259.339 18.392 257.643 18.392C255.947 18.392 254.379 18.68 252.939 19.256C251.531 19.832 250.283 20.664 249.195 21.752C248.139 22.808 247.307 24.056 246.699 25.496C246.123 26.904 245.835 28.472 245.835 30.2C245.835 31.896 246.123 33.464 246.699 34.904C247.307 36.344 248.139 37.608 249.195 38.696C250.251 39.752 251.499 40.568 252.939 41.144C254.379 41.72 255.947 42.008 257.643 42.008ZM291.779 47V13.4H305.603C308.579 13.4 311.123 13.88 313.235 14.84C315.379 15.8 317.027 17.176 318.179 18.968C319.331 20.76 319.907 22.888 319.907 25.352C319.907 27.816 319.331 29.944 318.179 31.736C317.027 33.496 315.379 34.856 313.235 35.816C311.123 36.744 308.579 37.208 305.603 37.208H295.235L298.019 34.376V47H291.779ZM313.763 47L305.267 34.808H311.939L320.483 47H313.763ZM298.019 35.048L295.235 32.072H305.315C308.067 32.072 310.131 31.48 311.507 30.296C312.915 29.112 313.619 27.464 313.619 25.352C313.619 23.208 312.915 21.56 311.507 20.408C310.131 19.256 308.067 18.68 305.315 18.68H295.235L298.019 15.608V35.048ZM330.728 27.368H347.432V32.504H330.728V27.368ZM331.208 41.768H350.168V47H324.968V13.4H349.496V18.632H331.208V41.768ZM355.205 47V13.4H370.949C374.981 13.4 378.053 14.2 380.165 15.8C382.277 17.368 383.333 19.48 383.333 22.136C383.333 23.928 382.917 25.464 382.085 26.744C381.253 27.992 380.133 28.968 378.725 29.672C377.349 30.344 375.845 30.68 374.213 30.68L375.077 28.952C376.965 28.952 378.661 29.304 380.165 30.008C381.669 30.68 382.853 31.672 383.717 32.984C384.613 34.296 385.061 35.928 385.061 37.88C385.061 40.76 383.957 43 381.749 44.6C379.541 46.2 376.261 47 371.909 47H355.205ZM361.445 42.104H371.525C373.861 42.104 375.653 41.72 376.901 40.952C378.149 40.184 378.773 38.952 378.773 37.256C378.773 35.592 378.149 34.376 376.901 33.608C375.653 32.808 373.861 32.408 371.525 32.408H360.965V27.56H370.277C372.453 27.56 374.117 27.176 375.269 26.408C376.453 25.64 377.045 24.488 377.045 22.952C377.045 21.384 376.453 20.216 375.269 19.448C374.117 18.68 372.453 18.296 370.277 18.296H361.445V42.104ZM405.544 47.48C402.92 47.48 400.504 47.048 398.296 46.184C396.088 45.32 394.168 44.12 392.536 42.584C390.904 41.016 389.64 39.192 388.744 37.112C387.848 35 387.4 32.696 387.4 30.2C387.4 27.704 387.848 25.416 388.744 23.336C389.64 21.224 390.904 19.4 392.536 17.864C394.168 16.296 396.088 15.08 398.296 14.216C400.504 13.352 402.904 12.92 405.496 12.92C408.12 12.92 410.52 13.352 412.696 14.216C414.904 15.08 416.824 16.296 418.456 17.864C420.088 19.4 421.352 21.224 422.248 23.336C423.144 25.416 423.592 27.704 423.592 30.2C423.592 32.696 423.144 35 422.248 37.112C421.352 39.224 420.088 41.048 418.456 42.584C416.824 44.12 414.904 45.32 412.696 46.184C410.52 47.048 408.136 47.48 405.544 47.48ZM405.496 42.008C407.192 42.008 408.76 41.72 410.2 41.144C411.64 40.568 412.888 39.752 413.944 38.696C415 37.608 415.816 36.36 416.392 34.952C417 33.512 417.304 31.928 417.304 30.2C417.304 28.472 417 26.904 416.392 25.496C415.816 24.056 415 22.808 413.944 21.752C412.888 20.664 411.64 19.832 410.2 19.256C408.76 18.68 407.192 18.392 405.496 18.392C403.8 18.392 402.232 18.68 400.792 19.256C399.384 19.832 398.136 20.664 397.048 21.752C395.992 22.808 395.16 24.056 394.552 25.496C393.976 26.904 393.688 28.472 393.688 30.2C393.688 31.896 393.976 33.464 394.552 34.904C395.16 36.344 395.992 37.608 397.048 38.696C398.104 39.752 399.352 40.568 400.792 41.144C402.232 41.72 403.8 42.008 405.496 42.008ZM442.734 47.48C438.126 47.48 434.51 46.184 431.886 43.592C429.294 41 427.998 37.256 427.998 32.36V13.4H434.238V32.12C434.238 35.576 434.974 38.088 436.446 39.656C437.95 41.224 440.062 42.008 442.782 42.008C445.502 42.008 447.598 41.224 449.07 39.656C450.542 38.088 451.278 35.576 451.278 32.12V13.4H457.422V32.36C457.422 37.256 456.11 41 453.486 43.592C450.894 46.184 447.31 47.48 442.734 47.48ZM479.793 47.48C477.233 47.48 474.849 47.064 472.641 46.232C470.465 45.368 468.561 44.168 466.929 42.632C465.329 41.064 464.081 39.224 463.185 37.112C462.289 35 461.841 32.696 461.841 30.2C461.841 27.704 462.289 25.4 463.185 23.288C464.081 21.176 465.345 19.352 466.977 17.816C468.609 16.248 470.513 15.048 472.689 14.216C474.865 13.352 477.249 12.92 479.841 12.92C482.593 12.92 485.105 13.4 487.377 14.36C489.649 15.288 491.569 16.68 493.137 18.536L489.105 22.328C487.889 21.016 486.529 20.04 485.025 19.4C483.521 18.728 481.889 18.392 480.129 18.392C478.369 18.392 476.753 18.68 475.281 19.256C473.841 19.832 472.577 20.648 471.489 21.704C470.433 22.76 469.601 24.008 468.993 25.448C468.417 26.888 468.129 28.472 468.129 30.2C468.129 31.928 468.417 33.512 468.993 34.952C469.601 36.392 470.433 37.64 471.489 38.696C472.577 39.752 473.841 40.568 475.281 41.144C476.753 41.72 478.369 42.008 480.129 42.008C481.889 42.008 483.521 41.688 485.025 41.048C486.529 40.376 487.889 39.368 489.105 38.024L493.137 41.864C491.569 43.688 489.649 45.08 487.377 46.04C485.105 47 482.577 47.48 479.793 47.48ZM477.537 57.944C476.673 57.944 475.873 57.848 475.137 57.656C474.401 57.496 473.729 57.256 473.121 56.936L474.225 54.104C474.737 54.36 475.249 54.552 475.761 54.68C476.305 54.808 476.881 54.872 477.489 54.872C478.417 54.872 479.073 54.712 479.457 54.392C479.841 54.072 480.033 53.656 480.033 53.144C480.033 52.664 479.825 52.28 479.409 51.992C479.025 51.704 478.385 51.56 477.489 51.56H476.001L477.297 46.664H480.561L479.889 49.352C481.297 49.512 482.337 49.96 483.009 50.696C483.713 51.464 484.065 52.36 484.065 53.384C484.065 54.792 483.473 55.896 482.289 56.696C481.105 57.528 479.521 57.944 477.537 57.944ZM491.741 47L506.861 13.4H513.005L528.173 47H521.645L508.637 16.712H511.133L498.173 47H491.741ZM498.701 39.224L500.381 34.328H518.525L520.205 39.224H498.701ZM540.942 47.48C538.318 47.48 535.806 47.112 533.406 46.376C531.006 45.608 529.102 44.632 527.694 43.448L529.854 38.6C531.198 39.656 532.862 40.536 534.846 41.24C536.83 41.944 538.862 42.296 540.942 42.296C542.702 42.296 544.126 42.104 545.214 41.72C546.302 41.336 547.102 40.824 547.614 40.184C548.126 39.512 548.382 38.76 548.382 37.928C548.382 36.904 548.014 36.088 547.278 35.48C546.542 34.84 545.582 34.344 544.398 33.992C543.246 33.608 541.95 33.256 540.51 32.936C539.102 32.616 537.678 32.248 536.238 31.832C534.83 31.384 533.534 30.824 532.35 30.152C531.198 29.448 530.254 28.52 529.518 27.368C528.782 26.216 528.414 24.744 528.414 22.952C528.414 21.128 528.894 19.464 529.854 17.96C530.846 16.424 532.334 15.208 534.318 14.312C536.334 13.384 538.878 12.92 541.95 12.92C543.966 12.92 545.966 13.176 547.95 13.688C549.934 14.2 551.662 14.936 553.134 15.896L551.166 20.744C549.662 19.848 548.11 19.192 546.51 18.776C544.91 18.328 543.374 18.104 541.902 18.104C540.174 18.104 538.766 18.312 537.678 18.728C536.622 19.144 535.838 19.688 535.326 20.36C534.846 21.032 534.606 21.8 534.606 22.664C534.606 23.688 534.958 24.52 535.662 25.16C536.398 25.768 537.342 26.248 538.494 26.6C539.678 26.952 540.99 27.304 542.43 27.656C543.87 27.976 545.294 28.344 546.702 28.76C548.142 29.176 549.438 29.72 550.59 30.392C551.774 31.064 552.718 31.976 553.422 33.128C554.158 34.28 554.526 35.736 554.526 37.496C554.526 39.288 554.03 40.952 553.038 42.488C552.078 43.992 550.59 45.208 548.574 46.136C546.558 47.032 544.014 47.48 540.942 47.48ZM570.14 47V13.4H585.884C589.916 13.4 592.988 14.2 595.1 15.8C597.212 17.368 598.268 19.48 598.268 22.136C598.268 23.928 597.852 25.464 597.02 26.744C596.188 27.992 595.068 28.968 593.66 29.672C592.284 30.344 590.78 30.68 589.148 30.68L590.012 28.952C591.9 28.952 593.596 29.304 595.1 30.008C596.604 30.68 597.788 31.672 598.652 32.984C599.548 34.296 599.996 35.928 599.996 37.88C599.996 40.76 598.892 43 596.684 44.6C594.476 46.2 591.196 47 586.844 47H570.14ZM576.38 42.104H586.46C588.796 42.104 590.588 41.72 591.836 40.952C593.084 40.184 593.708 38.952 593.708 37.256C593.708 35.592 593.084 34.376 591.836 33.608C590.588 32.808 588.796 32.408 586.46 32.408H575.9V27.56H585.212C587.388 27.56 589.052 27.176 590.204 26.408C591.388 25.64 591.98 24.488 591.98 22.952C591.98 21.384 591.388 20.216 590.204 19.448C589.052 18.68 587.388 18.296 585.212 18.296H576.38V42.104ZM619.183 47.48C614.575 47.48 610.959 46.184 608.335 43.592C605.743 41 604.447 37.256 604.447 32.36V13.4H610.687V32.12C610.687 35.576 611.423 38.088 612.895 39.656C614.399 41.224 616.511 42.008 619.231 42.008C621.951 42.008 624.047 41.224 625.519 39.656C626.991 38.088 627.727 35.576 627.727 32.12V13.4H633.871V32.36C633.871 37.256 632.559 41 629.935 43.592C627.343 46.184 623.759 47.48 619.183 47.48ZM651.106 47.48C648.482 47.48 645.97 47.112 643.57 46.376C641.17 45.608 639.266 44.632 637.858 43.448L640.018 38.6C641.362 39.656 643.026 40.536 645.01 41.24C646.994 41.944 649.026 42.296 651.106 42.296C652.866 42.296 654.29 42.104 655.378 41.72C656.466 41.336 657.266 40.824 657.778 40.184C658.29 39.512 658.546 38.76 658.546 37.928C658.546 36.904 658.178 36.088 657.442 35.48C656.706 34.84 655.746 34.344 654.562 33.992C653.41 33.608 652.114 33.256 650.674 32.936C649.266 32.616 647.842 32.248 646.402 31.832C644.994 31.384 643.698 30.824 642.514 30.152C641.362 29.448 640.418 28.52 639.682 27.368C638.946 26.216 638.578 24.744 638.578 22.952C638.578 21.128 639.058 19.464 640.018 17.96C641.01 16.424 642.498 15.208 644.482 14.312C646.498 13.384 649.042 12.92 652.114 12.92C654.13 12.92 656.13 13.176 658.114 13.688C660.098 14.2 661.826 14.936 663.298 15.896L661.33 20.744C659.826 19.848 658.274 19.192 656.674 18.776C655.074 18.328 653.538 18.104 652.066 18.104C650.338 18.104 648.93 18.312 647.842 18.728C646.786 19.144 646.002 19.688 645.49 20.36C645.01 21.032 644.77 21.8 644.77 22.664C644.77 23.688 645.122 24.52 645.826 25.16C646.562 25.768 647.506 26.248 648.658 26.6C649.842 26.952 651.154 27.304 652.594 27.656C654.034 27.976 655.458 28.344 656.866 28.76C658.306 29.176 659.602 29.72 660.754 30.392C661.938 31.064 662.882 31.976 663.586 33.128C664.322 34.28 664.69 35.736 664.69 37.496C664.69 39.288 664.194 40.952 663.202 42.488C662.242 43.992 660.754 45.208 658.738 46.136C656.722 47.032 654.178 47.48 651.106 47.48ZM664.206 47L679.326 13.4H685.47L700.638 47H694.11L681.102 16.712H683.598L670.638 47H664.206ZM671.166 39.224L672.846 34.328H690.99L692.67 39.224H671.166ZM708.119 47V18.68H696.983V13.4H725.495V18.68H714.359V47H708.119ZM743.534 47.48C740.91 47.48 738.494 47.048 736.286 46.184C734.078 45.32 732.158 44.12 730.526 42.584C728.894 41.016 727.63 39.192 726.734 37.112C725.838 35 725.39 32.696 725.39 30.2C725.39 27.704 725.838 25.416 726.734 23.336C727.63 21.224 728.894 19.4 730.526 17.864C732.158 16.296 734.078 15.08 736.286 14.216C738.494 13.352 740.894 12.92 743.486 12.92C746.11 12.92 748.51 13.352 750.686 14.216C752.894 15.08 754.814 16.296 756.446 17.864C758.078 19.4 759.342 21.224 760.238 23.336C761.134 25.416 761.582 27.704 761.582 30.2C761.582 32.696 761.134 35 760.238 37.112C759.342 39.224 758.078 41.048 756.446 42.584C754.814 44.12 752.894 45.32 750.686 46.184C748.51 47.048 746.126 47.48 743.534 47.48ZM743.486 42.008C745.182 42.008 746.75 41.72 748.19 41.144C749.63 40.568 750.878 39.752 751.934 38.696C752.99 37.608 753.806 36.36 754.382 34.952C754.99 33.512 755.294 31.928 755.294 30.2C755.294 28.472 754.99 26.904 754.382 25.496C753.806 24.056 752.99 22.808 751.934 21.752C750.878 20.664 749.63 19.832 748.19 19.256C746.75 18.68 745.182 18.392 743.486 18.392C741.79 18.392 740.222 18.68 738.782 19.256C737.374 19.832 736.126 20.664 735.038 21.752C733.982 22.808 733.15 24.056 732.542 25.496C731.966 26.904 731.678 28.472 731.678 30.2C731.678 31.896 731.966 33.464 732.542 34.904C733.15 36.344 733.982 37.608 735.038 38.696C736.094 39.752 737.342 40.568 738.782 41.144C740.222 41.72 741.79 42.008 743.486 42.008Z" fill="#252525"/>
<path d="M4.512 72V38.4H10.752V66.72H28.32V72H4.512ZM37.0864 52.368H53.7904V57.504H37.0864V52.368ZM37.5664 66.768H56.5264V72H31.3264V38.4H55.8544V43.632H37.5664V66.768ZM77.3066 72.48C74.6826 72.48 72.2666 72.048 70.0586 71.184C67.8506 70.32 65.9306 69.12 64.2986 67.584C62.6666 66.016 61.4026 64.192 60.5066 62.112C59.6106 60 59.1626 57.696 59.1626 55.2C59.1626 52.704 59.6106 50.416 60.5066 48.336C61.4026 46.224 62.6666 44.4 64.2986 42.864C65.9306 41.296 67.8506 40.08 70.0586 39.216C72.2666 38.352 74.6666 37.92 77.2586 37.92C79.8826 37.92 82.2826 38.352 84.4586 39.216C86.6666 40.08 88.5866 41.296 90.2186 42.864C91.8506 44.4 93.1146 46.224 94.0106 48.336C94.9066 50.416 95.3546 52.704 95.3546 55.2C95.3546 57.696 94.9066 60 94.0106 62.112C93.1146 64.224 91.8506 66.048 90.2186 67.584C88.5866 69.12 86.6666 70.32 84.4586 71.184C82.2826 72.048 79.8986 72.48 77.3066 72.48ZM77.2586 67.008C78.9546 67.008 80.5226 66.72 81.9626 66.144C83.4026 65.568 84.6506 64.752 85.7066 63.696C86.7626 62.608 87.5786 61.36 88.1546 59.952C88.7626 58.512 89.0666 56.928 89.0666 55.2C89.0666 53.472 88.7626 51.904 88.1546 50.496C87.5786 49.056 86.7626 47.808 85.7066 46.752C84.6506 45.664 83.4026 44.832 81.9626 44.256C80.5226 43.68 78.9546 43.392 77.2586 43.392C75.5626 43.392 73.9946 43.68 72.5546 44.256C71.1466 44.832 69.8986 45.664 68.8106 46.752C67.7546 47.808 66.9226 49.056 66.3146 50.496C65.7386 51.904 65.4506 53.472 65.4506 55.2C65.4506 56.896 65.7386 58.464 66.3146 59.904C66.9226 61.344 67.7546 62.608 68.8106 63.696C69.8666 64.752 71.1146 65.568 72.5546 66.144C73.9946 66.72 75.5626 67.008 77.2586 67.008ZM100.049 72V38.4H105.185L126.257 64.272H123.713V38.4H129.905V72H124.769L103.697 46.128H106.241V72H100.049ZM132.236 72L147.356 38.4H153.5L168.668 72H162.14L149.132 41.712H151.628L138.668 72H132.236ZM139.196 64.224L140.876 59.328H159.02L160.7 64.224H139.196ZM171.021 72V38.4H184.845C187.821 38.4 190.365 38.88 192.477 39.84C194.621 40.8 196.269 42.176 197.421 43.968C198.573 45.76 199.149 47.888 199.149 50.352C199.149 52.816 198.573 54.944 197.421 56.736C196.269 58.496 194.621 59.856 192.477 60.816C190.365 61.744 187.821 62.208 184.845 62.208H174.477L177.261 59.376V72H171.021ZM193.005 72L184.509 59.808H191.181L199.725 72H193.005ZM177.261 60.048L174.477 57.072H184.557C187.309 57.072 189.373 56.48 190.749 55.296C192.157 54.112 192.861 52.464 192.861 50.352C192.861 48.208 192.157 46.56 190.749 45.408C189.373 44.256 187.309 43.68 184.557 43.68H174.477L177.261 40.608V60.048ZM204.211 72V38.4H218.899C222.547 38.4 225.747 39.104 228.499 40.512C231.251 41.92 233.395 43.872 234.931 46.368C236.467 48.864 237.235 51.808 237.235 55.2C237.235 58.56 236.467 61.504 234.931 64.032C233.395 66.528 231.251 68.48 228.499 69.888C225.747 71.296 222.547 72 218.899 72H204.211ZM210.451 66.72H218.611C221.139 66.72 223.315 66.24 225.139 65.28C226.995 64.32 228.419 62.976 229.411 61.248C230.435 59.52 230.947 57.504 230.947 55.2C230.947 52.864 230.435 50.848 229.411 49.152C228.419 47.424 226.995 46.08 225.139 45.12C223.315 44.16 221.139 43.68 218.611 43.68H210.451V66.72ZM257.691 72.48C255.067 72.48 252.651 72.048 250.443 71.184C248.235 70.32 246.315 69.12 244.683 67.584C243.051 66.016 241.787 64.192 240.891 62.112C239.995 60 239.547 57.696 239.547 55.2C239.547 52.704 239.995 50.416 240.891 48.336C241.787 46.224 243.051 44.4 244.683 42.864C246.315 41.296 248.235 40.08 250.443 39.216C252.651 38.352 255.051 37.92 257.643 37.92C260.267 37.92 262.667 38.352 264.843 39.216C267.051 40.08 268.971 41.296 270.603 42.864C272.235 44.4 273.499 46.224 274.395 48.336C275.291 50.416 275.739 52.704 275.739 55.2C275.739 57.696 275.291 60 274.395 62.112C273.499 64.224 272.235 66.048 270.603 67.584C268.971 69.12 267.051 70.32 264.843 71.184C262.667 72.048 260.283 72.48 257.691 72.48ZM257.643 67.008C259.339 67.008 260.907 66.72 262.347 66.144C263.787 65.568 265.035 64.752 266.091 63.696C267.147 62.608 267.963 61.36 268.539 59.952C269.147 58.512 269.451 56.928 269.451 55.2C269.451 53.472 269.147 51.904 268.539 50.496C267.963 49.056 267.147 47.808 266.091 46.752C265.035 45.664 263.787 44.832 262.347 44.256C260.907 43.68 259.339 43.392 257.643 43.392C255.947 43.392 254.379 43.68 252.939 44.256C251.531 44.832 250.283 45.664 249.195 46.752C248.139 47.808 247.307 49.056 246.699 50.496C246.123 51.904 245.835 53.472 245.835 55.2C245.835 56.896 246.123 58.464 246.699 59.904C247.307 61.344 248.139 62.608 249.195 63.696C250.251 64.752 251.499 65.568 252.939 66.144C254.379 66.72 255.947 67.008 257.643 67.008ZM291.779 72V38.4H305.603C308.579 38.4 311.123 38.88 313.235 39.84C315.379 40.8 317.027 42.176 318.179 43.968C319.331 45.76 319.907 47.888 319.907 50.352C319.907 52.816 319.331 54.944 318.179 56.736C317.027 58.496 315.379 59.856 313.235 60.816C311.123 61.744 308.579 62.208 305.603 62.208H295.235L298.019 59.376V72H291.779ZM313.763 72L305.267 59.808H311.939L320.483 72H313.763ZM298.019 60.048L295.235 57.072H305.315C308.067 57.072 310.131 56.48 311.507 55.296C312.915 54.112 313.619 52.464 313.619 50.352C313.619 48.208 312.915 46.56 311.507 45.408C310.131 44.256 308.067 43.68 305.315 43.68H295.235L298.019 40.608V60.048ZM330.728 52.368H347.432V57.504H330.728V52.368ZM331.208 66.768H350.168V72H324.968V38.4H349.496V43.632H331.208V66.768ZM355.205 72V38.4H370.949C374.981 38.4 378.053 39.2 380.165 40.8C382.277 42.368 383.333 44.48 383.333 47.136C383.333 48.928 382.917 50.464 382.085 51.744C381.253 52.992 380.133 53.968 378.725 54.672C377.349 55.344 375.845 55.68 374.213 55.68L375.077 53.952C376.965 53.952 378.661 54.304 380.165 55.008C381.669 55.68 382.853 56.672 383.717 57.984C384.613 59.296 385.061 60.928 385.061 62.88C385.061 65.76 383.957 68 381.749 69.6C379.541 71.2 376.261 72 371.909 72H355.205ZM361.445 67.104H371.525C373.861 67.104 375.653 66.72 376.901 65.952C378.149 65.184 378.773 63.952 378.773 62.256C378.773 60.592 378.149 59.376 376.901 58.608C375.653 57.808 373.861 57.408 371.525 57.408H360.965V52.56H370.277C372.453 52.56 374.117 52.176 375.269 51.408C376.453 50.64 377.045 49.488 377.045 47.952C377.045 46.384 376.453 45.216 375.269 44.448C374.117 43.68 372.453 43.296 370.277 43.296H361.445V67.104ZM405.544 72.48C402.92 72.48 400.504 72.048 398.296 71.184C396.088 70.32 394.168 69.12 392.536 67.584C390.904 66.016 389.64 64.192 388.744 62.112C387.848 60 387.4 57.696 387.4 55.2C387.4 52.704 387.848 50.416 388.744 48.336C389.64 46.224 390.904 44.4 392.536 42.864C394.168 41.296 396.088 40.08 398.296 39.216C400.504 38.352 402.904 37.92 405.496 37.92C408.12 37.92 410.52 38.352 412.696 39.216C414.904 40.08 416.824 41.296 418.456 42.864C420.088 44.4 421.352 46.224 422.248 48.336C423.144 50.416 423.592 52.704 423.592 55.2C423.592 57.696 423.144 60 422.248 62.112C421.352 64.224 420.088 66.048 418.456 67.584C416.824 69.12 414.904 70.32 412.696 71.184C410.52 72.048 408.136 72.48 405.544 72.48ZM405.496 67.008C407.192 67.008 408.76 66.72 410.2 66.144C411.64 65.568 412.888 64.752 413.944 63.696C415 62.608 415.816 61.36 416.392 59.952C417 58.512 417.304 56.928 417.304 55.2C417.304 53.472 417 51.904 416.392 50.496C415.816 49.056 415 47.808 413.944 46.752C412.888 45.664 411.64 44.832 410.2 44.256C408.76 43.68 407.192 43.392 405.496 43.392C403.8 43.392 402.232 43.68 400.792 44.256C399.384 44.832 398.136 45.664 397.048 46.752C395.992 47.808 395.16 49.056 394.552 50.496C393.976 51.904 393.688 53.472 393.688 55.2C393.688 56.896 393.976 58.464 394.552 59.904C395.16 61.344 395.992 62.608 397.048 63.696C398.104 64.752 399.352 65.568 400.792 66.144C402.232 66.72 403.8 67.008 405.496 67.008ZM442.734 72.48C438.126 72.48 434.51 71.184 431.886 68.592C429.294 66 427.998 62.256 427.998 57.36V38.4H434.238V57.12C434.238 60.576 434.974 63.088 436.446 64.656C437.95 66.224 440.062 67.008 442.782 67.008C445.502 67.008 447.598 66.224 449.07 64.656C450.542 63.088 451.278 60.576 451.278 57.12V38.4H457.422V57.36C457.422 62.256 456.11 66 453.486 68.592C450.894 71.184 447.31 72.48 442.734 72.48ZM479.793 72.48C477.233 72.48 474.849 72.064 472.641 71.232C470.465 70.368 468.561 69.168 466.929 67.632C465.329 66.064 464.081 64.224 463.185 62.112C462.289 60 461.841 57.696 461.841 55.2C461.841 52.704 462.289 50.4 463.185 48.288C464.081 46.176 465.345 44.352 466.977 42.816C468.609 41.248 470.513 40.048 472.689 39.216C474.865 38.352 477.249 37.92 479.841 37.92C482.593 37.92 485.105 38.4 487.377 39.36C489.649 40.288 491.569 41.68 493.137 43.536L489.105 47.328C487.889 46.016 486.529 45.04 485.025 44.4C483.521 43.728 481.889 43.392 480.129 43.392C478.369 43.392 476.753 43.68 475.281 44.256C473.841 44.832 472.577 45.648 471.489 46.704C470.433 47.76 469.601 49.008 468.993 50.448C468.417 51.888 468.129 53.472 468.129 55.2C468.129 56.928 468.417 58.512 468.993 59.952C469.601 61.392 470.433 62.64 471.489 63.696C472.577 64.752 473.841 65.568 475.281 66.144C476.753 66.72 478.369 67.008 480.129 67.008C481.889 67.008 483.521 66.688 485.025 66.048C486.529 65.376 487.889 64.368 489.105 63.024L493.137 66.864C491.569 68.688 489.649 70.08 487.377 71.04C485.105 72 482.577 72.48 479.793 72.48ZM477.537 82.944C476.673 82.944 475.873 82.848 475.137 82.656C474.401 82.496 473.729 82.256 473.121 81.936L474.225 79.104C474.737 79.36 475.249 79.552 475.761 79.68C476.305 79.808 476.881 79.872 477.489 79.872C478.417 79.872 479.073 79.712 479.457 79.392C479.841 79.072 480.033 78.656 480.033 78.144C480.033 77.664 479.825 77.28 479.409 76.992C479.025 76.704 478.385 76.56 477.489 76.56H476.001L477.297 71.664H480.561L479.889 74.352C481.297 74.512 482.337 74.96 483.009 75.696C483.713 76.464 484.065 77.36 484.065 78.384C484.065 79.792 483.473 80.896 482.289 81.696C481.105 82.528 479.521 82.944 477.537 82.944ZM491.741 72L506.861 38.4H513.005L528.173 72H521.645L508.637 41.712H511.133L498.173 72H491.741ZM498.701 64.224L500.381 59.328H518.525L520.205 64.224H498.701ZM540.942 72.48C538.318 72.48 535.806 72.112 533.406 71.376C531.006 70.608 529.102 69.632 527.694 68.448L529.854 63.6C531.198 64.656 532.862 65.536 534.846 66.24C536.83 66.944 538.862 67.296 540.942 67.296C542.702 67.296 544.126 67.104 545.214 66.72C546.302 66.336 547.102 65.824 547.614 65.184C548.126 64.512 548.382 63.76 548.382 62.928C548.382 61.904 548.014 61.088 547.278 60.48C546.542 59.84 545.582 59.344 544.398 58.992C543.246 58.608 541.95 58.256 540.51 57.936C539.102 57.616 537.678 57.248 536.238 56.832C534.83 56.384 533.534 55.824 532.35 55.152C531.198 54.448 530.254 53.52 529.518 52.368C528.782 51.216 528.414 49.744 528.414 47.952C528.414 46.128 528.894 44.464 529.854 42.96C530.846 41.424 532.334 40.208 534.318 39.312C536.334 38.384 538.878 37.92 541.95 37.92C543.966 37.92 545.966 38.176 547.95 38.688C549.934 39.2 551.662 39.936 553.134 40.896L551.166 45.744C549.662 44.848 548.11 44.192 546.51 43.776C544.91 43.328 543.374 43.104 541.902 43.104C540.174 43.104 538.766 43.312 537.678 43.728C536.622 44.144 535.838 44.688 535.326 45.36C534.846 46.032 534.606 46.8 534.606 47.664C534.606 48.688 534.958 49.52 535.662 50.16C536.398 50.768 537.342 51.248 538.494 51.6C539.678 51.952 540.99 52.304 542.43 52.656C543.87 52.976 545.294 53.344 546.702 53.76C548.142 54.176 549.438 54.72 550.59 55.392C551.774 56.064 552.718 56.976 553.422 58.128C554.158 59.28 554.526 60.736 554.526 62.496C554.526 64.288 554.03 65.952 553.038 67.488C552.078 68.992 550.59 70.208 548.574 71.136C546.558 72.032 544.014 72.48 540.942 72.48ZM570.14 72V38.4H585.884C589.916 38.4 592.988 39.2 595.1 40.8C597.212 42.368 598.268 44.48 598.268 47.136C598.268 48.928 597.852 50.464 597.02 51.744C596.188 52.992 595.068 53.968 593.66 54.672C592.284 55.344 590.78 55.68 589.148 55.68L590.012 53.952C591.9 53.952 593.596 54.304 595.1 55.008C596.604 55.68 597.788 56.672 598.652 57.984C599.548 59.296 599.996 60.928 599.996 62.88C599.996 65.76 598.892 68 596.684 69.6C594.476 71.2 591.196 72 586.844 72H570.14ZM576.38 67.104H586.46C588.796 67.104 590.588 66.72 591.836 65.952C593.084 65.184 593.708 63.952 593.708 62.256C593.708 60.592 593.084 59.376 591.836 58.608C590.588 57.808 588.796 57.408 586.46 57.408H575.9V52.56H585.212C587.388 52.56 589.052 52.176 590.204 51.408C591.388 50.64 591.98 49.488 591.98 47.952C591.98 46.384 591.388 45.216 590.204 44.448C589.052 43.68 587.388 43.296 585.212 43.296H576.38V67.104ZM619.183 72.48C614.575 72.48 610.959 71.184 608.335 68.592C605.743 66 604.447 62.256 604.447 57.36V38.4H610.687V57.12C610.687 60.576 611.423 63.088 612.895 64.656C614.399 66.224 616.511 67.008 619.231 67.008C621.951 67.008 624.047 66.224 625.519 64.656C626.991 63.088 627.727 60.576 627.727 57.12V38.4H633.871V57.36C633.871 62.256 632.559 66 629.935 68.592C627.343 71.184 623.759 72.48 619.183 72.48ZM651.106 72.48C648.482 72.48 645.97 72.112 643.57 71.376C641.17 70.608 639.266 69.632 637.858 68.448L640.018 63.6C641.362 64.656 643.026 65.536 645.01 66.24C646.994 66.944 649.026 67.296 651.106 67.296C652.866 67.296 654.29 67.104 655.378 66.72C656.466 66.336 657.266 65.824 657.778 65.184C658.29 64.512 658.546 63.76 658.546 62.928C658.546 61.904 658.178 61.088 657.442 60.48C656.706 59.84 655.746 59.344 654.562 58.992C653.41 58.608 652.114 58.256 650.674 57.936C649.266 57.616 647.842 57.248 646.402 56.832C644.994 56.384 643.698 55.824 642.514 55.152C641.362 54.448 640.418 53.52 639.682 52.368C638.946 51.216 638.578 49.744 638.578 47.952C638.578 46.128 639.058 44.464 640.018 42.96C641.01 41.424 642.498 40.208 644.482 39.312C646.498 38.384 649.042 37.92 652.114 37.92C654.13 37.92 656.13 38.176 658.114 38.688C660.098 39.2 661.826 39.936 663.298 40.896L661.33 45.744C659.826 44.848 658.274 44.192 656.674 43.776C655.074 43.328 653.538 43.104 652.066 43.104C650.338 43.104 648.93 43.312 647.842 43.728C646.786 44.144 646.002 44.688 645.49 45.36C645.01 46.032 644.77 46.8 644.77 47.664C644.77 48.688 645.122 49.52 645.826 50.16C646.562 50.768 647.506 51.248 648.658 51.6C649.842 51.952 651.154 52.304 652.594 52.656C654.034 52.976 655.458 53.344 656.866 53.76C658.306 54.176 659.602 54.72 660.754 55.392C661.938 56.064 662.882 56.976 663.586 58.128C664.322 59.28 664.69 60.736 664.69 62.496C664.69 64.288 664.194 65.952 663.202 67.488C662.242 68.992 660.754 70.208 658.738 71.136C656.722 72.032 654.178 72.48 651.106 72.48ZM664.206 72L679.326 38.4H685.47L700.638 72H694.11L681.102 41.712H683.598L670.638 72H664.206ZM671.166 64.224L672.846 59.328H690.99L692.67 64.224H671.166ZM708.119 72V43.68H696.983V38.4H725.495V43.68H714.359V72H708.119ZM743.534 72.48C740.91 72.48 738.494 72.048 736.286 71.184C734.078 70.32 732.158 69.12 730.526 67.584C728.894 66.016 727.63 64.192 726.734 62.112C725.838 60 725.39 57.696 725.39 55.2C725.39 52.704 725.838 50.416 726.734 48.336C727.63 46.224 728.894 44.4 730.526 42.864C732.158 41.296 734.078 40.08 736.286 39.216C738.494 38.352 740.894 37.92 743.486 37.92C746.11 37.92 748.51 38.352 750.686 39.216C752.894 40.08 754.814 41.296 756.446 42.864C758.078 44.4 759.342 46.224 760.238 48.336C761.134 50.416 761.582 52.704 761.582 55.2C761.582 57.696 761.134 60 760.238 62.112C759.342 64.224 758.078 66.048 756.446 67.584C754.814 69.12 752.894 70.32 750.686 71.184C748.51 72.048 746.126 72.48 743.534 72.48ZM743.486 67.008C745.182 67.008 746.75 66.72 748.19 66.144C749.63 65.568 750.878 64.752 751.934 63.696C752.99 62.608 753.806 61.36 754.382 59.952C754.99 58.512 755.294 56.928 755.294 55.2C755.294 53.472 754.99 51.904 754.382 50.496C753.806 49.056 752.99 47.808 751.934 46.752C750.878 45.664 749.63 44.832 748.19 44.256C746.75 43.68 745.182 43.392 743.486 43.392C741.79 43.392 740.222 43.68 738.782 44.256C737.374 44.832 736.126 45.664 735.038 46.752C733.982 47.808 733.15 49.056 732.542 50.496C731.966 51.904 731.678 53.472 731.678 55.2C731.678 56.896 731.966 58.464 732.542 59.904C733.15 61.344 733.982 62.608 735.038 63.696C736.094 64.752 737.342 65.568 738.782 66.144C740.222 66.72 741.79 67.008 743.486 67.008Z" fill="#303030"/>
<path d="M4.512 97V63.4H10.752V91.72H28.32V97H4.512ZM37.0864 77.368H53.7904V82.504H37.0864V77.368ZM37.5664 91.768H56.5264V97H31.3264V63.4H55.8544V68.632H37.5664V91.768ZM77.3066 97.48C74.6826 97.48 72.2666 97.048 70.0586 96.184C67.8506 95.32 65.9306 94.12 64.2986 92.584C62.6666 91.016 61.4026 89.192 60.5066 87.112C59.6106 85 59.1626 82.696 59.1626 80.2C59.1626 77.704 59.6106 75.416 60.5066 73.336C61.4026 71.224 62.6666 69.4 64.2986 67.864C65.9306 66.296 67.8506 65.08 70.0586 64.216C72.2666 63.352 74.6666 62.92 77.2586 62.92C79.8826 62.92 82.2826 63.352 84.4586 64.216C86.6666 65.08 88.5866 66.296 90.2186 67.864C91.8506 69.4 93.1146 71.224 94.0106 73.336C94.9066 75.416 95.3546 77.704 95.3546 80.2C95.3546 82.696 94.9066 85 94.0106 87.112C93.1146 89.224 91.8506 91.048 90.2186 92.584C88.5866 94.12 86.6666 95.32 84.4586 96.184C82.2826 97.048 79.8986 97.48 77.3066 97.48ZM77.2586 92.008C78.9546 92.008 80.5226 91.72 81.9626 91.144C83.4026 90.568 84.6506 89.752 85.7066 88.696C86.7626 87.608 87.5786 86.36 88.1546 84.952C88.7626 83.512 89.0666 81.928 89.0666 80.2C89.0666 78.472 88.7626 76.904 88.1546 75.496C87.5786 74.056 86.7626 72.808 85.7066 71.752C84.6506 70.664 83.4026 69.832 81.9626 69.256C80.5226 68.68 78.9546 68.392 77.2586 68.392C75.5626 68.392 73.9946 68.68 72.5546 69.256C71.1466 69.832 69.8986 70.664 68.8106 71.752C67.7546 72.808 66.9226 74.056 66.3146 75.496C65.7386 76.904 65.4506 78.472 65.4506 80.2C65.4506 81.896 65.7386 83.464 66.3146 84.904C66.9226 86.344 67.7546 87.608 68.8106 88.696C69.8666 89.752 71.1146 90.568 72.5546 91.144C73.9946 91.72 75.5626 92.008 77.2586 92.008ZM100.049 97V63.4H105.185L126.257 89.272H123.713V63.4H129.905V97H124.769L103.697 71.128H106.241V97H100.049ZM132.236 97L147.356 63.4H153.5L168.668 97H162.14L149.132 66.712H151.628L138.668 97H132.236ZM139.196 89.224L140.876 84.328H159.02L160.7 89.224H139.196ZM171.021 97V63.4H184.845C187.821 63.4 190.365 63.88 192.477 64.84C194.621 65.8 196.269 67.176 197.421 68.968C198.573 70.76 199.149 72.888 199.149 75.352C199.149 77.816 198.573 79.944 197.421 81.736C196.269 83.496 194.621 84.856 192.477 85.816C190.365 86.744 187.821 87.208 184.845 87.208H174.477L177.261 84.376V97H171.021ZM193.005 97L184.509 84.808H191.181L199.725 97H193.005ZM177.261 85.048L174.477 82.072H184.557C187.309 82.072 189.373 81.48 190.749 80.296C192.157 79.112 192.861 77.464 192.861 75.352C192.861 73.208 192.157 71.56 190.749 70.408C189.373 69.256 187.309 68.68 184.557 68.68H174.477L177.261 65.608V85.048ZM204.211 97V63.4H218.899C222.547 63.4 225.747 64.104 228.499 65.512C231.251 66.92 233.395 68.872 234.931 71.368C236.467 73.864 237.235 76.808 237.235 80.2C237.235 83.56 236.467 86.504 234.931 89.032C233.395 91.528 231.251 93.48 228.499 94.888C225.747 96.296 222.547 97 218.899 97H204.211ZM210.451 91.72H218.611C221.139 91.72 223.315 91.24 225.139 90.28C226.995 89.32 228.419 87.976 229.411 86.248C230.435 84.52 230.947 82.504 230.947 80.2C230.947 77.864 230.435 75.848 229.411 74.152C228.419 72.424 226.995 71.08 225.139 70.12C223.315 69.16 221.139 68.68 218.611 68.68H210.451V91.72ZM257.691 97.48C255.067 97.48 252.651 97.048 250.443 96.184C248.235 95.32 246.315 94.12 244.683 92.584C243.051 91.016 241.787 89.192 240.891 87.112C239.995 85 239.547 82.696 239.547 80.2C239.547 77.704 239.995 75.416 240.891 73.336C241.787 71.224 243.051 69.4 244.683 67.864C246.315 66.296 248.235 65.08 250.443 64.216C252.651 63.352 255.051 62.92 257.643 62.92C260.267 62.92 262.667 63.352 264.843 64.216C267.051 65.08 268.971 66.296 270.603 67.864C272.235 69.4 273.499 71.224 274.395 73.336C275.291 75.416 275.739 77.704 275.739 80.2C275.739 82.696 275.291 85 274.395 87.112C273.499 89.224 272.235 91.048 270.603 92.584C268.971 94.12 267.051 95.32 264.843 96.184C262.667 97.048 260.283 97.48 257.691 97.48ZM257.643 92.008C259.339 92.008 260.907 91.72 262.347 91.144C263.787 90.568 265.035 89.752 266.091 88.696C267.147 87.608 267.963 86.36 268.539 84.952C269.147 83.512 269.451 81.928 269.451 80.2C269.451 78.472 269.147 76.904 268.539 75.496C267.963 74.056 267.147 72.808 266.091 71.752C265.035 70.664 263.787 69.832 262.347 69.256C260.907 68.68 259.339 68.392 257.643 68.392C255.947 68.392 254.379 68.68 252.939 69.256C251.531 69.832 250.283 70.664 249.195 71.752C248.139 72.808 247.307 74.056 246.699 75.496C246.123 76.904 245.835 78.472 245.835 80.2C245.835 81.896 246.123 83.464 246.699 84.904C247.307 86.344 248.139 87.608 249.195 88.696C250.251 89.752 251.499 90.568 252.939 91.144C254.379 91.72 255.947 92.008 257.643 92.008ZM291.779 97V63.4H305.603C308.579 63.4 311.123 63.88 313.235 64.84C315.379 65.8 317.027 67.176 318.179 68.968C319.331 70.76 319.907 72.888 319.907 75.352C319.907 77.816 319.331 79.944 318.179 81.736C317.027 83.496 315.379 84.856 313.235 85.816C311.123 86.744 308.579 87.208 305.603 87.208H295.235L298.019 84.376V97H291.779ZM313.763 97L305.267 84.808H311.939L320.483 97H313.763ZM298.019 85.048L295.235 82.072H305.315C308.067 82.072 310.131 81.48 311.507 80.296C312.915 79.112 313.619 77.464 313.619 75.352C313.619 73.208 312.915 71.56 311.507 70.408C310.131 69.256 308.067 68.68 305.315 68.68H295.235L298.019 65.608V85.048ZM330.728 77.368H347.432V82.504H330.728V77.368ZM331.208 91.768H350.168V97H324.968V63.4H349.496V68.632H331.208V91.768ZM355.205 97V63.4H370.949C374.981 63.4 378.053 64.2 380.165 65.8C382.277 67.368 383.333 69.48 383.333 72.136C383.333 73.928 382.917 75.464 382.085 76.744C381.253 77.992 380.133 78.968 378.725 79.672C377.349 80.344 375.845 80.68 374.213 80.68L375.077 78.952C376.965 78.952 378.661 79.304 380.165 80.008C381.669 80.68 382.853 81.672 383.717 82.984C384.613 84.296 385.061 85.928 385.061 87.88C385.061 90.76 383.957 93 381.749 94.6C379.541 96.2 376.261 97 371.909 97H355.205ZM361.445 92.104H371.525C373.861 92.104 375.653 91.72 376.901 90.952C378.149 90.184 378.773 88.952 378.773 87.256C378.773 85.592 378.149 84.376 376.901 83.608C375.653 82.808 373.861 82.408 371.525 82.408H360.965V77.56H370.277C372.453 77.56 374.117 77.176 375.269 76.408C376.453 75.64 377.045 74.488 377.045 72.952C377.045 71.384 376.453 70.216 375.269 69.448C374.117 68.68 372.453 68.296 370.277 68.296H361.445V92.104ZM405.544 97.48C402.92 97.48 400.504 97.048 398.296 96.184C396.088 95.32 394.168 94.12 392.536 92.584C390.904 91.016 389.64 89.192 388.744 87.112C387.848 85 387.4 82.696 387.4 80.2C387.4 77.704 387.848 75.416 388.744 73.336C389.64 71.224 390.904 69.4 392.536 67.864C394.168 66.296 396.088 65.08 398.296 64.216C400.504 63.352 402.904 62.92 405.496 62.92C408.12 62.92 410.52 63.352 412.696 64.216C414.904 65.08 416.824 66.296 418.456 67.864C420.088 69.4 421.352 71.224 422.248 73.336C423.144 75.416 423.592 77.704 423.592 80.2C423.592 82.696 423.144 85 422.248 87.112C421.352 89.224 420.088 91.048 418.456 92.584C416.824 94.12 414.904 95.32 412.696 96.184C410.52 97.048 408.136 97.48 405.544 97.48ZM405.496 92.008C407.192 92.008 408.76 91.72 410.2 91.144C411.64 90.568 412.888 89.752 413.944 88.696C415 87.608 415.816 86.36 416.392 84.952C417 83.512 417.304 81.928 417.304 80.2C417.304 78.472 417 76.904 416.392 75.496C415.816 74.056 415 72.808 413.944 71.752C412.888 70.664 411.64 69.832 410.2 69.256C408.76 68.68 407.192 68.392 405.496 68.392C403.8 68.392 402.232 68.68 400.792 69.256C399.384 69.832 398.136 70.664 397.048 71.752C395.992 72.808 395.16 74.056 394.552 75.496C393.976 76.904 393.688 78.472 393.688 80.2C393.688 81.896 393.976 83.464 394.552 84.904C395.16 86.344 395.992 87.608 397.048 88.696C398.104 89.752 399.352 90.568 400.792 91.144C402.232 91.72 403.8 92.008 405.496 92.008ZM442.734 97.48C438.126 97.48 434.51 96.184 431.886 93.592C429.294 91 427.998 87.256 427.998 82.36V63.4H434.238V82.12C434.238 85.576 434.974 88.088 436.446 89.656C437.95 91.224 440.062 92.008 442.782 92.008C445.502 92.008 447.598 91.224 449.07 89.656C450.542 88.088 451.278 85.576 451.278 82.12V63.4H457.422V82.36C457.422 87.256 456.11 91 453.486 93.592C450.894 96.184 447.31 97.48 442.734 97.48ZM479.793 97.48C477.233 97.48 474.849 97.064 472.641 96.232C470.465 95.368 468.561 94.168 466.929 92.632C465.329 91.064 464.081 89.224 463.185 87.112C462.289 85 461.841 82.696 461.841 80.2C461.841 77.704 462.289 75.4 463.185 73.288C464.081 71.176 465.345 69.352 466.977 67.816C468.609 66.248 470.513 65.048 472.689 64.216C474.865 63.352 477.249 62.92 479.841 62.92C482.593 62.92 485.105 63.4 487.377 64.36C489.649 65.288 491.569 66.68 493.137 68.536L489.105 72.328C487.889 71.016 486.529 70.04 485.025 69.4C483.521 68.728 481.889 68.392 480.129 68.392C478.369 68.392 476.753 68.68 475.281 69.256C473.841 69.832 472.577 70.648 471.489 71.704C470.433 72.76 469.601 74.008 468.993 75.448C468.417 76.888 468.129 78.472 468.129 80.2C468.129 81.928 468.417 83.512 468.993 84.952C469.601 86.392 470.433 87.64 471.489 88.696C472.577 89.752 473.841 90.568 475.281 91.144C476.753 91.72 478.369 92.008 480.129 92.008C481.889 92.008 483.521 91.688 485.025 91.048C486.529 90.376 487.889 89.368 489.105 88.024L493.137 91.864C491.569 93.688 489.649 95.08 487.377 96.04C485.105 97 482.577 97.48 479.793 97.48ZM477.537 107.944C476.673 107.944 475.873 107.848 475.137 107.656C474.401 107.496 473.729 107.256 473.121 106.936L474.225 104.104C474.737 104.36 475.249 104.552 475.761 104.68C476.305 104.808 476.881 104.872 477.489 104.872C478.417 104.872 479.073 104.712 479.457 104.392C479.841 104.072 480.033 103.656 480.033 103.144C480.033 102.664 479.825 102.28 479.409 101.992C479.025 101.704 478.385 101.56 477.489 101.56H476.001L477.297 96.664H480.561L479.889 99.352C481.297 99.512 482.337 99.96 483.009 100.696C483.713 101.464 484.065 102.36 484.065 103.384C484.065 104.792 483.473 105.896 482.289 106.696C481.105 107.528 479.521 107.944 477.537 107.944ZM491.741 97L506.861 63.4H513.005L528.173 97H521.645L508.637 66.712H511.133L498.173 97H491.741ZM498.701 89.224L500.381 84.328H518.525L520.205 89.224H498.701ZM540.942 97.48C538.318 97.48 535.806 97.112 533.406 96.376C531.006 95.608 529.102 94.632 527.694 93.448L529.854 88.6C531.198 89.656 532.862 90.536 534.846 91.24C536.83 91.944 538.862 92.296 540.942 92.296C542.702 92.296 544.126 92.104 545.214 91.72C546.302 91.336 547.102 90.824 547.614 90.184C548.126 89.512 548.382 88.76 548.382 87.928C548.382 86.904 548.014 86.088 547.278 85.48C546.542 84.84 545.582 84.344 544.398 83.992C543.246 83.608 541.95 83.256 540.51 82.936C539.102 82.616 537.678 82.248 536.238 81.832C534.83 81.384 533.534 80.824 532.35 80.152C531.198 79.448 530.254 78.52 529.518 77.368C528.782 76.216 528.414 74.744 528.414 72.952C528.414 71.128 528.894 69.464 529.854 67.96C530.846 66.424 532.334 65.208 534.318 64.312C536.334 63.384 538.878 62.92 541.95 62.92C543.966 62.92 545.966 63.176 547.95 63.688C549.934 64.2 551.662 64.936 553.134 65.896L551.166 70.744C549.662 69.848 548.11 69.192 546.51 68.776C544.91 68.328 543.374 68.104 541.902 68.104C540.174 68.104 538.766 68.312 537.678 68.728C536.622 69.144 535.838 69.688 535.326 70.36C534.846 71.032 534.606 71.8 534.606 72.664C534.606 73.688 534.958 74.52 535.662 75.16C536.398 75.768 537.342 76.248 538.494 76.6C539.678 76.952 540.99 77.304 542.43 77.656C543.87 77.976 545.294 78.344 546.702 78.76C548.142 79.176 549.438 79.72 550.59 80.392C551.774 81.064 552.718 81.976 553.422 83.128C554.158 84.28 554.526 85.736 554.526 87.496C554.526 89.288 554.03 90.952 553.038 92.488C552.078 93.992 550.59 95.208 548.574 96.136C546.558 97.032 544.014 97.48 540.942 97.48ZM570.14 97V63.4H585.884C589.916 63.4 592.988 64.2 595.1 65.8C597.212 67.368 598.268 69.48 598.268 72.136C598.268 73.928 597.852 75.464 597.02 76.744C596.188 77.992 595.068 78.968 593.66 79.672C592.284 80.344 590.78 80.68 589.148 80.68L590.012 78.952C591.9 78.952 593.596 79.304 595.1 80.008C596.604 80.68 597.788 81.672 598.652 82.984C599.548 84.296 599.996 85.928 599.996 87.88C599.996 90.76 598.892 93 596.684 94.6C594.476 96.2 591.196 97 586.844 97H570.14ZM576.38 92.104H586.46C588.796 92.104 590.588 91.72 591.836 90.952C593.084 90.184 593.708 88.952 593.708 87.256C593.708 85.592 593.084 84.376 591.836 83.608C590.588 82.808 588.796 82.408 586.46 82.408H575.9V77.56H585.212C587.388 77.56 589.052 77.176 590.204 76.408C591.388 75.64 591.98 74.488 591.98 72.952C591.98 71.384 591.388 70.216 590.204 69.448C589.052 68.68 587.388 68.296 585.212 68.296H576.38V92.104ZM619.183 97.48C614.575 97.48 610.959 96.184 608.335 93.592C605.743 91 604.447 87.256 604.447 82.36V63.4H610.687V82.12C610.687 85.576 611.423 88.088 612.895 89.656C614.399 91.224 616.511 92.008 619.231 92.008C621.951 92.008 624.047 91.224 625.519 89.656C626.991 88.088 627.727 85.576 627.727 82.12V63.4H633.871V82.36C633.871 87.256 632.559 91 629.935 93.592C627.343 96.184 623.759 97.48 619.183 97.48ZM651.106 97.48C648.482 97.48 645.97 97.112 643.57 96.376C641.17 95.608 639.266 94.632 637.858 93.448L640.018 88.6C641.362 89.656 643.026 90.536 645.01 91.24C646.994 91.944 649.026 92.296 651.106 92.296C652.866 92.296 654.29 92.104 655.378 91.72C656.466 91.336 657.266 90.824 657.778 90.184C658.29 89.512 658.546 88.76 658.546 87.928C658.546 86.904 658.178 86.088 657.442 85.48C656.706 84.84 655.746 84.344 654.562 83.992C653.41 83.608 652.114 83.256 650.674 82.936C649.266 82.616 647.842 82.248 646.402 81.832C644.994 81.384 643.698 80.824 642.514 80.152C641.362 79.448 640.418 78.52 639.682 77.368C638.946 76.216 638.578 74.744 638.578 72.952C638.578 71.128 639.058 69.464 640.018 67.96C641.01 66.424 642.498 65.208 644.482 64.312C646.498 63.384 649.042 62.92 652.114 62.92C654.13 62.92 656.13 63.176 658.114 63.688C660.098 64.2 661.826 64.936 663.298 65.896L661.33 70.744C659.826 69.848 658.274 69.192 656.674 68.776C655.074 68.328 653.538 68.104 652.066 68.104C650.338 68.104 648.93 68.312 647.842 68.728C646.786 69.144 646.002 69.688 645.49 70.36C645.01 71.032 644.77 71.8 644.77 72.664C644.77 73.688 645.122 74.52 645.826 75.16C646.562 75.768 647.506 76.248 648.658 76.6C649.842 76.952 651.154 77.304 652.594 77.656C654.034 77.976 655.458 78.344 656.866 78.76C658.306 79.176 659.602 79.72 660.754 80.392C661.938 81.064 662.882 81.976 663.586 83.128C664.322 84.28 664.69 85.736 664.69 87.496C664.69 89.288 664.194 90.952 663.202 92.488C662.242 93.992 660.754 95.208 658.738 96.136C656.722 97.032 654.178 97.48 651.106 97.48ZM664.206 97L679.326 63.4H685.47L700.638 97H694.11L681.102 66.712H683.598L670.638 97H664.206ZM671.166 89.224L672.846 84.328H690.99L692.67 89.224H671.166ZM708.119 97V68.68H696.983V63.4H725.495V68.68H714.359V97H708.119ZM743.534 97.48C740.91 97.48 738.494 97.048 736.286 96.184C734.078 95.32 732.158 94.12 730.526 92.584C728.894 91.016 727.63 89.192 726.734 87.112C725.838 85 725.39 82.696 725.39 80.2C725.39 77.704 725.838 75.416 726.734 73.336C727.63 71.224 728.894 69.4 730.526 67.864C732.158 66.296 734.078 65.08 736.286 64.216C738.494 63.352 740.894 62.92 743.486 62.92C746.11 62.92 748.51 63.352 750.686 64.216C752.894 65.08 754.814 66.296 756.446 67.864C758.078 69.4 759.342 71.224 760.238 73.336C761.134 75.416 761.582 77.704 761.582 80.2C761.582 82.696 761.134 85 760.238 87.112C759.342 89.224 758.078 91.048 756.446 92.584C754.814 94.12 752.894 95.32 750.686 96.184C748.51 97.048 746.126 97.48 743.534 97.48ZM743.486 92.008C745.182 92.008 746.75 91.72 748.19 91.144C749.63 90.568 750.878 89.752 751.934 88.696C752.99 87.608 753.806 86.36 754.382 84.952C754.99 83.512 755.294 81.928 755.294 80.2C755.294 78.472 754.99 76.904 754.382 75.496C753.806 74.056 752.99 72.808 751.934 71.752C750.878 70.664 749.63 69.832 748.19 69.256C746.75 68.68 745.182 68.392 743.486 68.392C741.79 68.392 740.222 68.68 738.782 69.256C737.374 69.832 736.126 70.664 735.038 71.752C733.982 72.808 733.15 74.056 732.542 75.496C731.966 76.904 731.678 78.472 731.678 80.2C731.678 81.896 731.966 83.464 732.542 84.904C733.15 86.344 733.982 87.608 735.038 88.696C736.094 89.752 737.342 90.568 738.782 91.144C740.222 91.72 741.79 92.008 743.486 92.008Z" fill="white"/>
<path d="M1.02 43.9C3.47333 42.06 5.36667 40.4133 6.7 38.96C8.04667 37.4933 8.72 36.06 8.72 34.66C8.72 33.74 8.48667 33.0067 8.02 32.46C7.56667 31.9 6.82 31.62 5.78 31.62C4.76667 31.62 3.98 31.94 3.42 32.58C2.87333 33.2067 2.56667 34.0467 2.5 35.1H1.14C1.22 33.62 1.67333 32.4733 2.5 31.66C3.34 30.8333 4.43333 30.42 5.78 30.42C7.07333 30.42 8.12 30.7867 8.92 31.52C9.72 32.24 10.12 33.2667 10.12 34.6C10.12 36.2133 9.44667 37.78 8.1 39.3C6.76667 40.8067 5.12 42.28 3.16 43.72H10.56V44.9H1.02V43.9ZM12.7453 37.7C12.7453 35.4067 13.0986 33.6267 13.8053 32.36C14.512 31.0933 15.7786 30.46 17.6053 30.46C19.432 30.46 20.6986 31.0933 21.4053 32.36C22.112 33.6267 22.4653 35.4067 22.4653 37.7C22.4653 40.0333 22.112 41.84 21.4053 43.12C20.6986 44.4 19.432 45.04 17.6053 45.04C15.7653 45.04 14.492 44.4 13.7853 43.12C13.092 41.84 12.7453 40.0333 12.7453 37.7ZM21.0853 37.7C21.0853 36.46 20.9986 35.4133 20.8253 34.56C20.652 33.7067 20.312 33.02 19.8053 32.5C19.2986 31.98 18.5653 31.72 17.6053 31.72C16.6453 31.72 15.912 31.98 15.4053 32.5C14.8986 33.02 14.5586 33.7067 14.3853 34.56C14.212 35.4133 14.1253 36.46 14.1253 37.7C14.1253 38.98 14.212 40.0533 14.3853 40.92C14.5586 41.7733 14.8986 42.46 15.4053 42.98C15.912 43.5 16.6453 43.76 17.6053 43.76C18.5653 43.76 19.2986 43.5 19.8053 42.98C20.312 42.46 20.652 41.7733 20.8253 40.92C20.9986 40.0533 21.0853 38.98 21.0853 37.7ZM25.0695 37.7C25.0695 35.4067 25.4229 33.6267 26.1295 32.36C26.8362 31.0933 28.1029 30.46 29.9295 30.46C31.7562 30.46 33.0229 31.0933 33.7295 32.36C34.4362 33.6267 34.7895 35.4067 34.7895 37.7C34.7895 40.0333 34.4362 41.84 33.7295 43.12C33.0229 44.4 31.7562 45.04 29.9295 45.04C28.0895 45.04 26.8162 44.4 26.1095 43.12C25.4162 41.84 25.0695 40.0333 25.0695 37.7ZM33.4095 37.7C33.4095 36.46 33.3229 35.4133 33.1495 34.56C32.9762 33.7067 32.6362 33.02 32.1295 32.5C31.6229 31.98 30.8895 31.72 29.9295 31.72C28.9695 31.72 28.2362 31.98 27.7295 32.5C27.2229 33.02 26.8829 33.7067 26.7095 34.56C26.5362 35.4133 26.4495 36.46 26.4495 37.7C26.4495 38.98 26.5362 40.0533 26.7095 40.92C26.8829 41.7733 27.2229 42.46 27.7295 42.98C28.2362 43.5 28.9695 43.76 29.9295 43.76C30.8895 43.76 31.6229 43.5 32.1295 42.98C32.6362 42.46 32.9762 41.7733 33.1495 40.92C33.3229 40.0533 33.4095 38.98 33.4095 37.7ZM36.7738 41.6V40.54L44.0538 30.74H45.7138V40.38H47.8537V41.6H45.7138V45H44.3338V41.6H36.7738ZM44.3938 32.28L38.3938 40.38H44.3938V32.28Z" fill="white"/>
</svg>
