<svg width="764" height="136" viewBox="0 0 764 136" fill="none" xmlns="http://www.w3.org/2000/svg">
<path d="M19.2 112.896L15.096 126H13.416L9.792 115.008L6.168 126H4.464L0.36 112.896H2.064L5.328 124.296L9 112.896H10.68L14.304 124.32L17.544 112.896H19.2ZM37.9063 118.776C37.9063 119.352 37.8903 119.792 37.8583 120.096H26.9863C27.0343 121.088 27.2743 121.936 27.7063 122.64C28.1383 123.344 28.7063 123.88 29.4103 124.248C30.1143 124.6 30.8823 124.776 31.7143 124.776C32.8023 124.776 33.7143 124.512 34.4503 123.984C35.2023 123.456 35.6983 122.744 35.9383 121.848H37.7143C37.3943 123.128 36.7063 124.176 35.6503 124.992C34.6103 125.792 33.2983 126.192 31.7143 126.192C30.4823 126.192 29.3783 125.92 28.4023 125.376C27.4263 124.816 26.6583 124.032 26.0983 123.024C25.5543 122 25.2823 120.808 25.2823 119.448C25.2823 118.088 25.5543 116.896 26.0983 115.872C26.6423 114.848 27.4023 114.064 28.3783 113.52C29.3543 112.976 30.4663 112.704 31.7143 112.704C32.9623 112.704 34.0503 112.976 34.9783 113.52C35.9223 114.064 36.6423 114.8 37.1383 115.728C37.6503 116.64 37.9063 117.656 37.9063 118.776ZM36.2023 118.728C36.2183 117.752 36.0183 116.92 35.6023 116.232C35.2023 115.544 34.6503 115.024 33.9463 114.672C33.2423 114.32 32.4743 114.144 31.6423 114.144C30.3943 114.144 29.3303 114.544 28.4503 115.344C27.5703 116.144 27.0823 117.272 26.9863 118.728H36.2023ZM47.196 115.8C47.628 114.888 48.292 114.144 49.188 113.568C50.1 112.992 51.172 112.704 52.404 112.704C53.604 112.704 54.676 112.984 55.62 113.544C56.564 114.088 57.3 114.872 57.828 115.896C58.372 116.904 58.644 118.08 58.644 119.424C58.644 120.768 58.372 121.952 57.828 122.976C57.3 124 56.556 124.792 55.596 125.352C54.652 125.912 53.588 126.192 52.404 126.192C51.156 126.192 50.076 125.912 49.164 125.352C48.268 124.776 47.612 124.032 47.196 123.12V126H45.54V108.24H47.196V115.8ZM56.94 119.424C56.94 118.336 56.724 117.4 56.292 116.616C55.876 115.816 55.3 115.208 54.564 114.792C53.828 114.376 52.996 114.168 52.068 114.168C51.172 114.168 50.348 114.384 49.596 114.816C48.86 115.248 48.276 115.864 47.844 116.664C47.412 117.464 47.196 118.392 47.196 119.448C47.196 120.504 47.412 121.432 47.844 122.232C48.276 123.032 48.86 123.648 49.596 124.08C50.348 124.512 51.172 124.728 52.068 124.728C52.996 124.728 53.828 124.52 54.564 124.104C55.3 123.672 55.876 123.056 56.292 122.256C56.724 121.44 56.94 120.496 56.94 119.424ZM76.6732 119.424C76.6732 118.08 76.9452 116.904 77.4892 115.896C78.0332 114.872 78.7772 114.088 79.7212 113.544C80.6812 112.984 81.7612 112.704 82.9612 112.704C84.1132 112.704 85.1532 112.984 86.0812 113.544C87.0092 114.104 87.6892 114.832 88.1212 115.728V108.24H89.8012V126H88.1212V123.072C87.7212 123.984 87.0652 124.736 86.1532 125.328C85.2412 125.904 84.1692 126.192 82.9372 126.192C81.7372 126.192 80.6572 125.912 79.6972 125.352C78.7532 124.792 78.0092 124 77.4652 122.976C76.9372 121.952 76.6732 120.768 76.6732 119.424ZM88.1212 119.448C88.1212 118.392 87.9052 117.464 87.4732 116.664C87.0412 115.864 86.4492 115.248 85.6972 114.816C84.9612 114.384 84.1452 114.168 83.2492 114.168C82.3212 114.168 81.4892 114.376 80.7532 114.792C80.0172 115.208 79.4332 115.816 79.0012 116.616C78.5852 117.4 78.3772 118.336 78.3772 119.424C78.3772 120.496 78.5852 121.44 79.0012 122.256C79.4332 123.056 80.0172 123.672 80.7532 124.104C81.4892 124.52 82.3212 124.728 83.2492 124.728C84.1452 124.728 84.9612 124.512 85.6972 124.08C86.4492 123.648 87.0412 123.032 87.4732 122.232C87.9052 121.432 88.1212 120.504 88.1212 119.448ZM110.053 118.776C110.053 119.352 110.037 119.792 110.005 120.096H99.1326C99.1806 121.088 99.4206 121.936 99.8526 122.64C100.285 123.344 100.853 123.88 101.557 124.248C102.261 124.6 103.029 124.776 103.861 124.776C104.949 124.776 105.861 124.512 106.597 123.984C107.349 123.456 107.845 122.744 108.085 121.848H109.861C109.541 123.128 108.853 124.176 107.797 124.992C106.757 125.792 105.445 126.192 103.861 126.192C102.629 126.192 101.525 125.92 100.549 125.376C99.5726 124.816 98.8046 124.032 98.2446 123.024C97.7006 122 97.4286 120.808 97.4286 119.448C97.4286 118.088 97.7006 116.896 98.2446 115.872C98.7886 114.848 99.5486 114.064 100.525 113.52C101.501 112.976 102.613 112.704 103.861 112.704C105.109 112.704 106.197 112.976 107.125 113.52C108.069 114.064 108.789 114.8 109.285 115.728C109.797 116.64 110.053 117.656 110.053 118.776ZM108.349 118.728C108.365 117.752 108.165 116.92 107.749 116.232C107.349 115.544 106.797 115.024 106.093 114.672C105.389 114.32 104.621 114.144 103.789 114.144C102.541 114.144 101.477 114.544 100.597 115.344C99.7166 116.144 99.2286 117.272 99.1326 118.728H108.349ZM122.342 124.368L126.758 112.896H128.534L123.278 126H121.382L116.126 112.896H117.926L122.342 124.368ZM147.227 118.776C147.227 119.352 147.211 119.792 147.179 120.096H136.307C136.355 121.088 136.595 121.936 137.027 122.64C137.459 123.344 138.027 123.88 138.731 124.248C139.435 124.6 140.203 124.776 141.035 124.776C142.123 124.776 143.035 124.512 143.771 123.984C144.523 123.456 145.019 122.744 145.259 121.848H147.035C146.715 123.128 146.027 124.176 144.971 124.992C143.931 125.792 142.619 126.192 141.035 126.192C139.803 126.192 138.699 125.92 137.723 125.376C136.747 124.816 135.979 124.032 135.419 123.024C134.875 122 134.603 120.808 134.603 119.448C134.603 118.088 134.875 116.896 135.419 115.872C135.963 114.848 136.723 114.064 137.699 113.52C138.675 112.976 139.787 112.704 141.035 112.704C142.283 112.704 143.371 112.976 144.299 113.52C145.243 114.064 145.963 114.8 146.459 115.728C146.971 116.64 147.227 117.656 147.227 118.776ZM145.523 118.728C145.539 117.752 145.339 116.92 144.923 116.232C144.523 115.544 143.971 115.024 143.267 114.672C142.563 114.32 141.795 114.144 140.963 114.144C139.715 114.144 138.651 114.544 137.771 115.344C136.891 116.144 136.403 117.272 136.307 118.728H145.523ZM156.541 108.24V126H154.861V108.24H156.541ZM170.641 126.192C169.409 126.192 168.297 125.92 167.305 125.376C166.329 124.816 165.553 124.032 164.977 123.024C164.417 122 164.137 120.808 164.137 119.448C164.137 118.088 164.425 116.904 165.001 115.896C165.577 114.872 166.361 114.088 167.353 113.544C168.345 112.984 169.457 112.704 170.689 112.704C171.921 112.704 173.033 112.984 174.025 113.544C175.033 114.088 175.817 114.872 176.377 115.896C176.953 116.904 177.241 118.088 177.241 119.448C177.241 120.792 176.953 121.976 176.377 123C175.801 124.024 175.009 124.816 174.001 125.376C172.993 125.92 171.873 126.192 170.641 126.192ZM170.641 124.728C171.505 124.728 172.305 124.536 173.041 124.152C173.777 123.752 174.369 123.16 174.817 122.376C175.281 121.576 175.513 120.6 175.513 119.448C175.513 118.296 175.289 117.328 174.841 116.544C174.393 115.744 173.801 115.152 173.065 114.768C172.329 114.368 171.529 114.168 170.665 114.168C169.801 114.168 169.001 114.368 168.265 114.768C167.529 115.152 166.937 115.744 166.489 116.544C166.057 117.328 165.841 118.296 165.841 119.448C165.841 120.6 166.057 121.576 166.489 122.376C166.937 123.16 167.521 123.752 168.241 124.152C168.977 124.536 169.777 124.728 170.641 124.728ZM186.52 115.776C186.936 114.896 187.592 114.168 188.488 113.592C189.4 113 190.48 112.704 191.728 112.704C192.912 112.704 193.976 112.984 194.92 113.544C195.88 114.088 196.624 114.872 197.152 115.896C197.696 116.904 197.968 118.08 197.968 119.424C197.968 120.768 197.696 121.952 197.152 122.976C196.624 124 195.88 124.792 194.92 125.352C193.976 125.912 192.912 126.192 191.728 126.192C190.496 126.192 189.424 125.904 188.512 125.328C187.6 124.736 186.936 124 186.52 123.12V132.192H184.864V112.896H186.52V115.776ZM196.264 119.424C196.264 118.336 196.048 117.4 195.616 116.616C195.2 115.816 194.624 115.208 193.888 114.792C193.152 114.376 192.32 114.168 191.392 114.168C190.496 114.168 189.672 114.384 188.92 114.816C188.184 115.248 187.6 115.864 187.168 116.664C186.736 117.464 186.52 118.392 186.52 119.448C186.52 120.504 186.736 121.432 187.168 122.232C187.6 123.032 188.184 123.648 188.92 124.08C189.672 124.512 190.496 124.728 191.392 124.728C192.32 124.728 193.152 124.52 193.888 124.104C194.624 123.672 195.2 123.056 195.616 122.256C196.048 121.44 196.264 120.496 196.264 119.424ZM217.475 118.776C217.475 119.352 217.459 119.792 217.427 120.096H206.555C206.603 121.088 206.843 121.936 207.275 122.64C207.707 123.344 208.275 123.88 208.979 124.248C209.683 124.6 210.451 124.776 211.283 124.776C212.371 124.776 213.283 124.512 214.019 123.984C214.771 123.456 215.267 122.744 215.507 121.848H217.283C216.963 123.128 216.275 124.176 215.219 124.992C214.179 125.792 212.867 126.192 211.283 126.192C210.051 126.192 208.947 125.92 207.971 125.376C206.995 124.816 206.227 124.032 205.667 123.024C205.123 122 204.851 120.808 204.851 119.448C204.851 118.088 205.123 116.896 205.667 115.872C206.211 114.848 206.971 114.064 207.947 113.52C208.923 112.976 210.035 112.704 211.283 112.704C212.531 112.704 213.619 112.976 214.547 113.52C215.491 114.064 216.211 114.8 216.707 115.728C217.219 116.64 217.475 117.656 217.475 118.776ZM215.771 118.728C215.787 117.752 215.587 116.92 215.171 116.232C214.771 115.544 214.219 115.024 213.515 114.672C212.811 114.32 212.043 114.144 211.211 114.144C209.963 114.144 208.899 114.544 208.019 115.344C207.139 116.144 206.651 117.272 206.555 118.728H215.771ZM226.789 115.224C227.157 114.408 227.717 113.776 228.469 113.328C229.237 112.88 230.173 112.656 231.277 112.656V114.408H230.821C229.605 114.408 228.629 114.736 227.893 115.392C227.157 116.048 226.789 117.144 226.789 118.68V126H225.109V112.896H226.789V115.224Z" fill="#7095CC"/>
<path d="M4.512 47V13.4H10.752V41.72H28.32V47H4.512ZM37.0864 27.368H53.7904V32.504H37.0864V27.368ZM37.5664 41.768H56.5264V47H31.3264V13.4H55.8544V18.632H37.5664V41.768ZM77.3066 47.48C74.6826 47.48 72.2666 47.048 70.0586 46.184C67.8506 45.32 65.9306 44.12 64.2986 42.584C62.6666 41.016 61.4026 39.192 60.5066 37.112C59.6106 35 59.1626 32.696 59.1626 30.2C59.1626 27.704 59.6106 25.416 60.5066 23.336C61.4026 21.224 62.6666 19.4 64.2986 17.864C65.9306 16.296 67.8506 15.08 70.0586 14.216C72.2666 13.352 74.6666 12.92 77.2586 12.92C79.8826 12.92 82.2826 13.352 84.4586 14.216C86.6666 15.08 88.5866 16.296 90.2186 17.864C91.8506 19.4 93.1146 21.224 94.0106 23.336C94.9066 25.416 95.3546 27.704 95.3546 30.2C95.3546 32.696 94.9066 35 94.0106 37.112C93.1146 39.224 91.8506 41.048 90.2186 42.584C88.5866 44.12 86.6666 45.32 84.4586 46.184C82.2826 47.048 79.8986 47.48 77.3066 47.48ZM77.2586 42.008C78.9546 42.008 80.5226 41.72 81.9626 41.144C83.4026 40.568 84.6506 39.752 85.7066 38.696C86.7626 37.608 87.5786 36.36 88.1546 34.952C88.7626 33.512 89.0666 31.928 89.0666 30.2C89.0666 28.472 88.7626 26.904 88.1546 25.496C87.5786 24.056 86.7626 22.808 85.7066 21.752C84.6506 20.664 83.4026 19.832 81.9626 19.256C80.5226 18.68 78.9546 18.392 77.2586 18.392C75.5626 18.392 73.9946 18.68 72.5546 19.256C71.1466 19.832 69.8986 20.664 68.8106 21.752C67.7546 22.808 66.9226 24.056 66.3146 25.496C65.7386 26.904 65.4506 28.472 65.4506 30.2C65.4506 31.896 65.7386 33.464 66.3146 34.904C66.9226 36.344 67.7546 37.608 68.8106 38.696C69.8666 39.752 71.1146 40.568 72.5546 41.144C73.9946 41.72 75.5626 42.008 77.2586 42.008ZM100.049 47V13.4H105.185L126.257 39.272H123.713V13.4H129.905V47H124.769L103.697 21.128H106.241V47H100.049ZM132.236 47L147.356 13.4H153.5L168.668 47H162.14L149.132 16.712H151.628L138.668 47H132.236ZM139.196 39.224L140.876 34.328H159.02L160.7 39.224H139.196ZM171.021 47V13.4H184.845C187.821 13.4 190.365 13.88 192.477 14.84C194.621 15.8 196.269 17.176 197.421 18.968C198.573 20.76 199.149 22.888 199.149 25.352C199.149 27.816 198.573 29.944 197.421 31.736C196.269 33.496 194.621 34.856 192.477 35.816C190.365 36.744 187.821 37.208 184.845 37.208H174.477L177.261 34.376V47H171.021ZM193.005 47L184.509 34.808H191.181L199.725 47H193.005ZM177.261 35.048L174.477 32.072H184.557C187.309 32.072 189.373 31.48 190.749 30.296C192.157 29.112 192.861 27.464 192.861 25.352C192.861 23.208 192.157 21.56 190.749 20.408C189.373 19.256 187.309 18.68 184.557 18.68H174.477L177.261 15.608V35.048ZM204.211 47V13.4H218.899C222.547 13.4 225.747 14.104 228.499 15.512C231.251 16.92 233.395 18.872 234.931 21.368C236.467 23.864 237.235 26.808 237.235 30.2C237.235 33.56 236.467 36.504 234.931 39.032C233.395 41.528 231.251 43.48 228.499 44.888C225.747 46.296 222.547 47 218.899 47H204.211ZM210.451 41.72H218.611C221.139 41.72 223.315 41.24 225.139 40.28C226.995 39.32 228.419 37.976 229.411 36.248C230.435 34.52 230.947 32.504 230.947 30.2C230.947 27.864 230.435 25.848 229.411 24.152C228.419 22.424 226.995 21.08 225.139 20.12C223.315 19.16 221.139 18.68 218.611 18.68H210.451V41.72ZM257.691 47.48C255.067 47.48 252.651 47.048 250.443 46.184C248.235 45.32 246.315 44.12 244.683 42.584C243.051 41.016 241.787 39.192 240.891 37.112C239.995 35 239.547 32.696 239.547 30.2C239.547 27.704 239.995 25.416 240.891 23.336C241.787 21.224 243.051 19.4 244.683 17.864C246.315 16.296 248.235 15.08 250.443 14.216C252.651 13.352 255.051 12.92 257.643 12.92C260.267 12.92 262.667 13.352 264.843 14.216C267.051 15.08 268.971 16.296 270.603 17.864C272.235 19.4 273.499 21.224 274.395 23.336C275.291 25.416 275.739 27.704 275.739 30.2C275.739 32.696 275.291 35 274.395 37.112C273.499 39.224 272.235 41.048 270.603 42.584C268.971 44.12 267.051 45.32 264.843 46.184C262.667 47.048 260.283 47.48 257.691 47.48ZM257.643 42.008C259.339 42.008 260.907 41.72 262.347 41.144C263.787 40.568 265.035 39.752 266.091 38.696C267.147 37.608 267.963 36.36 268.539 34.952C269.147 33.512 269.451 31.928 269.451 30.2C269.451 28.472 269.147 26.904 268.539 25.496C267.963 24.056 267.147 22.808 266.091 21.752C265.035 20.664 263.787 19.832 262.347 19.256C260.907 18.68 259.339 18.392 257.643 18.392C255.947 18.392 254.379 18.68 252.939 19.256C251.531 19.832 250.283 20.664 249.195 21.752C248.139 22.808 247.307 24.056 246.699 25.496C246.123 26.904 245.835 28.472 245.835 30.2C245.835 31.896 246.123 33.464 246.699 34.904C247.307 36.344 248.139 37.608 249.195 38.696C250.251 39.752 251.499 40.568 252.939 41.144C254.379 41.72 255.947 42.008 257.643 42.008ZM291.779 47V13.4H305.603C308.579 13.4 311.123 13.88 313.235 14.84C315.379 15.8 317.027 17.176 318.179 18.968C319.331 20.76 319.907 22.888 319.907 25.352C319.907 27.816 319.331 29.944 318.179 31.736C317.027 33.496 315.379 34.856 313.235 35.816C311.123 36.744 308.579 37.208 305.603 37.208H295.235L298.019 34.376V47H291.779ZM313.763 47L305.267 34.808H311.939L320.483 47H313.763ZM298.019 35.048L295.235 32.072H305.315C308.067 32.072 310.131 31.48 311.507 30.296C312.915 29.112 313.619 27.464 313.619 25.352C313.619 23.208 312.915 21.56 311.507 20.408C310.131 19.256 308.067 18.68 305.315 18.68H295.235L298.019 15.608V35.048ZM330.728 27.368H347.432V32.504H330.728V27.368ZM331.208 41.768H350.168V47H324.968V13.4H349.496V18.632H331.208V41.768ZM355.205 47V13.4H370.949C374.981 13.4 378.053 14.2 380.165 15.8C382.277 17.368 383.333 19.48 383.333 22.136C383.333 23.928 382.917 25.464 382.085 26.744C381.253 27.992 380.133 28.968 378.725 29.672C377.349 30.344 375.845 30.68 374.213 30.68L375.077 28.952C376.965 28.952 378.661 29.304 380.165 30.008C381.669 30.68 382.853 31.672 383.717 32.984C384.613 34.296 385.061 35.928 385.061 37.88C385.061 40.76 383.957 43 381.749 44.6C379.541 46.2 376.261 47 371.909 47H355.205ZM361.445 42.104H371.525C373.861 42.104 375.653 41.72 376.901 40.952C378.149 40.184 378.773 38.952 378.773 37.256C378.773 35.592 378.149 34.376 376.901 33.608C375.653 32.808 373.861 32.408 371.525 32.408H360.965V27.56H370.277C372.453 27.56 374.117 27.176 375.269 26.408C376.453 25.64 377.045 24.488 377.045 22.952C377.045 21.384 376.453 20.216 375.269 19.448C374.117 18.68 372.453 18.296 370.277 18.296H361.445V42.104ZM405.544 47.48C402.92 47.48 400.504 47.048 398.296 46.184C396.088 45.32 394.168 44.12 392.536 42.584C390.904 41.016 389.64 39.192 388.744 37.112C387.848 35 387.4 32.696 387.4 30.2C387.4 27.704 387.848 25.416 388.744 23.336C389.64 21.224 390.904 19.4 392.536 17.864C394.168 16.296 396.088 15.08 398.296 14.216C400.504 13.352 402.904 12.92 405.496 12.92C408.12 12.92 410.52 13.352 412.696 14.216C414.904 15.08 416.824 16.296 418.456 17.864C420.088 19.4 421.352 21.224 422.248 23.336C423.144 25.416 423.592 27.704 423.592 30.2C423.592 32.696 423.144 35 422.248 37.112C421.352 39.224 420.088 41.048 418.456 42.584C416.824 44.12 414.904 45.32 412.696 46.184C410.52 47.048 408.136 47.48 405.544 47.48ZM405.496 42.008C407.192 42.008 408.76 41.72 410.2 41.144C411.64 40.568 412.888 39.752 413.944 38.696C415 37.608 415.816 36.36 416.392 34.952C417 33.512 417.304 31.928 417.304 30.2C417.304 28.472 417 26.904 416.392 25.496C415.816 24.056 415 22.808 413.944 21.752C412.888 20.664 411.64 19.832 410.2 19.256C408.76 18.68 407.192 18.392 405.496 18.392C403.8 18.392 402.232 18.68 400.792 19.256C399.384 19.832 398.136 20.664 397.048 21.752C395.992 22.808 395.16 24.056 394.552 25.496C393.976 26.904 393.688 28.472 393.688 30.2C393.688 31.896 393.976 33.464 394.552 34.904C395.16 36.344 395.992 37.608 397.048 38.696C398.104 39.752 399.352 40.568 400.792 41.144C402.232 41.72 403.8 42.008 405.496 42.008ZM442.734 47.48C438.126 47.48 434.51 46.184 431.886 43.592C429.294 41 427.998 37.256 427.998 32.36V13.4H434.238V32.12C434.238 35.576 434.974 38.088 436.446 39.656C437.95 41.224 440.062 42.008 442.782 42.008C445.502 42.008 447.598 41.224 449.07 39.656C450.542 38.088 451.278 35.576 451.278 32.12V13.4H457.422V32.36C457.422 37.256 456.11 41 453.486 43.592C450.894 46.184 447.31 47.48 442.734 47.48ZM479.793 47.48C477.233 47.48 474.849 47.064 472.641 46.232C470.465 45.368 468.561 44.168 466.929 42.632C465.329 41.064 464.081 39.224 463.185 37.112C462.289 35 461.841 32.696 461.841 30.2C461.841 27.704 462.289 25.4 463.185 23.288C464.081 21.176 465.345 19.352 466.977 17.816C468.609 16.248 470.513 15.048 472.689 14.216C474.865 13.352 477.249 12.92 479.841 12.92C482.593 12.92 485.105 13.4 487.377 14.36C489.649 15.288 491.569 16.68 493.137 18.536L489.105 22.328C487.889 21.016 486.529 20.04 485.025 19.4C483.521 18.728 481.889 18.392 480.129 18.392C478.369 18.392 476.753 18.68 475.281 19.256C473.841 19.832 472.577 20.648 471.489 21.704C470.433 22.76 469.601 24.008 468.993 25.448C468.417 26.888 468.129 28.472 468.129 30.2C468.129 31.928 468.417 33.512 468.993 34.952C469.601 36.392 470.433 37.64 471.489 38.696C472.577 39.752 473.841 40.568 475.281 41.144C476.753 41.72 478.369 42.008 480.129 42.008C481.889 42.008 483.521 41.688 485.025 41.048C486.529 40.376 487.889 39.368 489.105 38.024L493.137 41.864C491.569 43.688 489.649 45.08 487.377 46.04C485.105 47 482.577 47.48 479.793 47.48ZM477.537 57.944C476.673 57.944 475.873 57.848 475.137 57.656C474.401 57.496 473.729 57.256 473.121 56.936L474.225 54.104C474.737 54.36 475.249 54.552 475.761 54.68C476.305 54.808 476.881 54.872 477.489 54.872C478.417 54.872 479.073 54.712 479.457 54.392C479.841 54.072 480.033 53.656 480.033 53.144C480.033 52.664 479.825 52.28 479.409 51.992C479.025 51.704 478.385 51.56 477.489 51.56H476.001L477.297 46.664H480.561L479.889 49.352C481.297 49.512 482.337 49.96 483.009 50.696C483.713 51.464 484.065 52.36 484.065 53.384C484.065 54.792 483.473 55.896 482.289 56.696C481.105 57.528 479.521 57.944 477.537 57.944ZM491.741 47L506.861 13.4H513.005L528.173 47H521.645L508.637 16.712H511.133L498.173 47H491.741ZM498.701 39.224L500.381 34.328H518.525L520.205 39.224H498.701ZM540.942 47.48C538.318 47.48 535.806 47.112 533.406 46.376C531.006 45.608 529.102 44.632 527.694 43.448L529.854 38.6C531.198 39.656 532.862 40.536 534.846 41.24C536.83 41.944 538.862 42.296 540.942 42.296C542.702 42.296 544.126 42.104 545.214 41.72C546.302 41.336 547.102 40.824 547.614 40.184C548.126 39.512 548.382 38.76 548.382 37.928C548.382 36.904 548.014 36.088 547.278 35.48C546.542 34.84 545.582 34.344 544.398 33.992C543.246 33.608 541.95 33.256 540.51 32.936C539.102 32.616 537.678 32.248 536.238 31.832C534.83 31.384 533.534 30.824 532.35 30.152C531.198 29.448 530.254 28.52 529.518 27.368C528.782 26.216 528.414 24.744 528.414 22.952C528.414 21.128 528.894 19.464 529.854 17.96C530.846 16.424 532.334 15.208 534.318 14.312C536.334 13.384 538.878 12.92 541.95 12.92C543.966 12.92 545.966 13.176 547.95 13.688C549.934 14.2 551.662 14.936 553.134 15.896L551.166 20.744C549.662 19.848 548.11 19.192 546.51 18.776C544.91 18.328 543.374 18.104 541.902 18.104C540.174 18.104 538.766 18.312 537.678 18.728C536.622 19.144 535.838 19.688 535.326 20.36C534.846 21.032 534.606 21.8 534.606 22.664C534.606 23.688 534.958 24.52 535.662 25.16C536.398 25.768 537.342 26.248 538.494 26.6C539.678 26.952 540.99 27.304 542.43 27.656C543.87 27.976 545.294 28.344 546.702 28.76C548.142 29.176 549.438 29.72 550.59 30.392C551.774 31.064 552.718 31.976 553.422 33.128C554.158 34.28 554.526 35.736 554.526 37.496C554.526 39.288 554.03 40.952 553.038 42.488C552.078 43.992 550.59 45.208 548.574 46.136C546.558 47.032 544.014 47.48 540.942 47.48ZM570.14 47V13.4H585.884C589.916 13.4 592.988 14.2 595.1 15.8C597.212 17.368 598.268 19.48 598.268 22.136C598.268 23.928 597.852 25.464 597.02 26.744C596.188 27.992 595.068 28.968 593.66 29.672C592.284 30.344 590.78 30.68 589.148 30.68L590.012 28.952C591.9 28.952 593.596 29.304 595.1 30.008C596.604 30.68 597.788 31.672 598.652 32.984C599.548 34.296 599.996 35.928 599.996 37.88C599.996 40.76 598.892 43 596.684 44.6C594.476 46.2 591.196 47 586.844 47H570.14ZM576.38 42.104H586.46C588.796 42.104 590.588 41.72 591.836 40.952C593.084 40.184 593.708 38.952 593.708 37.256C593.708 35.592 593.084 34.376 591.836 33.608C590.588 32.808 588.796 32.408 586.46 32.408H575.9V27.56H585.212C587.388 27.56 589.052 27.176 590.204 26.408C591.388 25.64 591.98 24.488 591.98 22.952C591.98 21.384 591.388 20.216 590.204 19.448C589.052 18.68 587.388 18.296 585.212 18.296H576.38V42.104ZM619.183 47.48C614.575 47.48 610.959 46.184 608.335 43.592C605.743 41 604.447 37.256 604.447 32.36V13.4H610.687V32.12C610.687 35.576 611.423 38.088 612.895 39.656C614.399 41.224 616.511 42.008 619.231 42.008C621.951 42.008 624.047 41.224 625.519 39.656C626.991 38.088 627.727 35.576 627.727 32.12V13.4H633.871V32.36C633.871 37.256 632.559 41 629.935 43.592C627.343 46.184 623.759 47.48 619.183 47.48ZM651.106 47.48C648.482 47.48 645.97 47.112 643.57 46.376C641.17 45.608 639.266 44.632 637.858 43.448L640.018 38.6C641.362 39.656 643.026 40.536 645.01 41.24C646.994 41.944 649.026 42.296 651.106 42.296C652.866 42.296 654.29 42.104 655.378 41.72C656.466 41.336 657.266 40.824 657.778 40.184C658.29 39.512 658.546 38.76 658.546 37.928C658.546 36.904 658.178 36.088 657.442 35.48C656.706 34.84 655.746 34.344 654.562 33.992C653.41 33.608 652.114 33.256 650.674 32.936C649.266 32.616 647.842 32.248 646.402 31.832C644.994 31.384 643.698 30.824 642.514 30.152C641.362 29.448 640.418 28.52 639.682 27.368C638.946 26.216 638.578 24.744 638.578 22.952C638.578 21.128 639.058 19.464 640.018 17.96C641.01 16.424 642.498 15.208 644.482 14.312C646.498 13.384 649.042 12.92 652.114 12.92C654.13 12.92 656.13 13.176 658.114 13.688C660.098 14.2 661.826 14.936 663.298 15.896L661.33 20.744C659.826 19.848 658.274 19.192 656.674 18.776C655.074 18.328 653.538 18.104 652.066 18.104C650.338 18.104 648.93 18.312 647.842 18.728C646.786 19.144 646.002 19.688 645.49 20.36C645.01 21.032 644.77 21.8 644.77 22.664C644.77 23.688 645.122 24.52 645.826 25.16C646.562 25.768 647.506 26.248 648.658 26.6C649.842 26.952 651.154 27.304 652.594 27.656C654.034 27.976 655.458 28.344 656.866 28.76C658.306 29.176 659.602 29.72 660.754 30.392C661.938 31.064 662.882 31.976 663.586 33.128C664.322 34.28 664.69 35.736 664.69 37.496C664.69 39.288 664.194 40.952 663.202 42.488C662.242 43.992 660.754 45.208 658.738 46.136C656.722 47.032 654.178 47.48 651.106 47.48ZM664.206 47L679.326 13.4H685.47L700.638 47H694.11L681.102 16.712H683.598L670.638 47H664.206ZM671.166 39.224L672.846 34.328H690.99L692.67 39.224H671.166ZM708.119 47V18.68H696.983V13.4H725.495V18.68H714.359V47H708.119ZM743.534 47.48C740.91 47.48 738.494 47.048 736.286 46.184C734.078 45.32 732.158 44.12 730.526 42.584C728.894 41.016 727.63 39.192 726.734 37.112C725.838 35 725.39 32.696 725.39 30.2C725.39 27.704 725.838 25.416 726.734 23.336C727.63 21.224 728.894 19.4 730.526 17.864C732.158 16.296 734.078 15.08 736.286 14.216C738.494 13.352 740.894 12.92 743.486 12.92C746.11 12.92 748.51 13.352 750.686 14.216C752.894 15.08 754.814 16.296 756.446 17.864C758.078 19.4 759.342 21.224 760.238 23.336C761.134 25.416 761.582 27.704 761.582 30.2C761.582 32.696 761.134 35 760.238 37.112C759.342 39.224 758.078 41.048 756.446 42.584C754.814 44.12 752.894 45.32 750.686 46.184C748.51 47.048 746.126 47.48 743.534 47.48ZM743.486 42.008C745.182 42.008 746.75 41.72 748.19 41.144C749.63 40.568 750.878 39.752 751.934 38.696C752.99 37.608 753.806 36.36 754.382 34.952C754.99 33.512 755.294 31.928 755.294 30.2C755.294 28.472 754.99 26.904 754.382 25.496C753.806 24.056 752.99 22.808 751.934 21.752C750.878 20.664 749.63 19.832 748.19 19.256C746.75 18.68 745.182 18.392 743.486 18.392C741.79 18.392 740.222 18.68 738.782 19.256C737.374 19.832 736.126 20.664 735.038 21.752C733.982 22.808 733.15 24.056 732.542 25.496C731.966 26.904 731.678 28.472 731.678 30.2C731.678 31.896 731.966 33.464 732.542 34.904C733.15 36.344 733.982 37.608 735.038 38.696C736.094 39.752 737.342 40.568 738.782 41.144C740.222 41.72 741.79 42.008 743.486 42.008Z" fill="#525252" fill-opacity="0.4"/>
<path d="M4.512 67V33.4H10.752V61.72H28.32V67H4.512ZM37.0864 47.368H53.7904V52.504H37.0864V47.368ZM37.5664 61.768H56.5264V67H31.3264V33.4H55.8544V38.632H37.5664V61.768ZM77.3066 67.48C74.6826 67.48 72.2666 67.048 70.0586 66.184C67.8506 65.32 65.9306 64.12 64.2986 62.584C62.6666 61.016 61.4026 59.192 60.5066 57.112C59.6106 55 59.1626 52.696 59.1626 50.2C59.1626 47.704 59.6106 45.416 60.5066 43.336C61.4026 41.224 62.6666 39.4 64.2986 37.864C65.9306 36.296 67.8506 35.08 70.0586 34.216C72.2666 33.352 74.6666 32.92 77.2586 32.92C79.8826 32.92 82.2826 33.352 84.4586 34.216C86.6666 35.08 88.5866 36.296 90.2186 37.864C91.8506 39.4 93.1146 41.224 94.0106 43.336C94.9066 45.416 95.3546 47.704 95.3546 50.2C95.3546 52.696 94.9066 55 94.0106 57.112C93.1146 59.224 91.8506 61.048 90.2186 62.584C88.5866 64.12 86.6666 65.32 84.4586 66.184C82.2826 67.048 79.8986 67.48 77.3066 67.48ZM77.2586 62.008C78.9546 62.008 80.5226 61.72 81.9626 61.144C83.4026 60.568 84.6506 59.752 85.7066 58.696C86.7626 57.608 87.5786 56.36 88.1546 54.952C88.7626 53.512 89.0666 51.928 89.0666 50.2C89.0666 48.472 88.7626 46.904 88.1546 45.496C87.5786 44.056 86.7626 42.808 85.7066 41.752C84.6506 40.664 83.4026 39.832 81.9626 39.256C80.5226 38.68 78.9546 38.392 77.2586 38.392C75.5626 38.392 73.9946 38.68 72.5546 39.256C71.1466 39.832 69.8986 40.664 68.8106 41.752C67.7546 42.808 66.9226 44.056 66.3146 45.496C65.7386 46.904 65.4506 48.472 65.4506 50.2C65.4506 51.896 65.7386 53.464 66.3146 54.904C66.9226 56.344 67.7546 57.608 68.8106 58.696C69.8666 59.752 71.1146 60.568 72.5546 61.144C73.9946 61.72 75.5626 62.008 77.2586 62.008ZM100.049 67V33.4H105.185L126.257 59.272H123.713V33.4H129.905V67H124.769L103.697 41.128H106.241V67H100.049ZM132.236 67L147.356 33.4H153.5L168.668 67H162.14L149.132 36.712H151.628L138.668 67H132.236ZM139.196 59.224L140.876 54.328H159.02L160.7 59.224H139.196ZM171.021 67V33.4H184.845C187.821 33.4 190.365 33.88 192.477 34.84C194.621 35.8 196.269 37.176 197.421 38.968C198.573 40.76 199.149 42.888 199.149 45.352C199.149 47.816 198.573 49.944 197.421 51.736C196.269 53.496 194.621 54.856 192.477 55.816C190.365 56.744 187.821 57.208 184.845 57.208H174.477L177.261 54.376V67H171.021ZM193.005 67L184.509 54.808H191.181L199.725 67H193.005ZM177.261 55.048L174.477 52.072H184.557C187.309 52.072 189.373 51.48 190.749 50.296C192.157 49.112 192.861 47.464 192.861 45.352C192.861 43.208 192.157 41.56 190.749 40.408C189.373 39.256 187.309 38.68 184.557 38.68H174.477L177.261 35.608V55.048ZM204.211 67V33.4H218.899C222.547 33.4 225.747 34.104 228.499 35.512C231.251 36.92 233.395 38.872 234.931 41.368C236.467 43.864 237.235 46.808 237.235 50.2C237.235 53.56 236.467 56.504 234.931 59.032C233.395 61.528 231.251 63.48 228.499 64.888C225.747 66.296 222.547 67 218.899 67H204.211ZM210.451 61.72H218.611C221.139 61.72 223.315 61.24 225.139 60.28C226.995 59.32 228.419 57.976 229.411 56.248C230.435 54.52 230.947 52.504 230.947 50.2C230.947 47.864 230.435 45.848 229.411 44.152C228.419 42.424 226.995 41.08 225.139 40.12C223.315 39.16 221.139 38.68 218.611 38.68H210.451V61.72ZM257.691 67.48C255.067 67.48 252.651 67.048 250.443 66.184C248.235 65.32 246.315 64.12 244.683 62.584C243.051 61.016 241.787 59.192 240.891 57.112C239.995 55 239.547 52.696 239.547 50.2C239.547 47.704 239.995 45.416 240.891 43.336C241.787 41.224 243.051 39.4 244.683 37.864C246.315 36.296 248.235 35.08 250.443 34.216C252.651 33.352 255.051 32.92 257.643 32.92C260.267 32.92 262.667 33.352 264.843 34.216C267.051 35.08 268.971 36.296 270.603 37.864C272.235 39.4 273.499 41.224 274.395 43.336C275.291 45.416 275.739 47.704 275.739 50.2C275.739 52.696 275.291 55 274.395 57.112C273.499 59.224 272.235 61.048 270.603 62.584C268.971 64.12 267.051 65.32 264.843 66.184C262.667 67.048 260.283 67.48 257.691 67.48ZM257.643 62.008C259.339 62.008 260.907 61.72 262.347 61.144C263.787 60.568 265.035 59.752 266.091 58.696C267.147 57.608 267.963 56.36 268.539 54.952C269.147 53.512 269.451 51.928 269.451 50.2C269.451 48.472 269.147 46.904 268.539 45.496C267.963 44.056 267.147 42.808 266.091 41.752C265.035 40.664 263.787 39.832 262.347 39.256C260.907 38.68 259.339 38.392 257.643 38.392C255.947 38.392 254.379 38.68 252.939 39.256C251.531 39.832 250.283 40.664 249.195 41.752C248.139 42.808 247.307 44.056 246.699 45.496C246.123 46.904 245.835 48.472 245.835 50.2C245.835 51.896 246.123 53.464 246.699 54.904C247.307 56.344 248.139 57.608 249.195 58.696C250.251 59.752 251.499 60.568 252.939 61.144C254.379 61.72 255.947 62.008 257.643 62.008ZM291.779 67V33.4H305.603C308.579 33.4 311.123 33.88 313.235 34.84C315.379 35.8 317.027 37.176 318.179 38.968C319.331 40.76 319.907 42.888 319.907 45.352C319.907 47.816 319.331 49.944 318.179 51.736C317.027 53.496 315.379 54.856 313.235 55.816C311.123 56.744 308.579 57.208 305.603 57.208H295.235L298.019 54.376V67H291.779ZM313.763 67L305.267 54.808H311.939L320.483 67H313.763ZM298.019 55.048L295.235 52.072H305.315C308.067 52.072 310.131 51.48 311.507 50.296C312.915 49.112 313.619 47.464 313.619 45.352C313.619 43.208 312.915 41.56 311.507 40.408C310.131 39.256 308.067 38.68 305.315 38.68H295.235L298.019 35.608V55.048ZM330.728 47.368H347.432V52.504H330.728V47.368ZM331.208 61.768H350.168V67H324.968V33.4H349.496V38.632H331.208V61.768ZM355.205 67V33.4H370.949C374.981 33.4 378.053 34.2 380.165 35.8C382.277 37.368 383.333 39.48 383.333 42.136C383.333 43.928 382.917 45.464 382.085 46.744C381.253 47.992 380.133 48.968 378.725 49.672C377.349 50.344 375.845 50.68 374.213 50.68L375.077 48.952C376.965 48.952 378.661 49.304 380.165 50.008C381.669 50.68 382.853 51.672 383.717 52.984C384.613 54.296 385.061 55.928 385.061 57.88C385.061 60.76 383.957 63 381.749 64.6C379.541 66.2 376.261 67 371.909 67H355.205ZM361.445 62.104H371.525C373.861 62.104 375.653 61.72 376.901 60.952C378.149 60.184 378.773 58.952 378.773 57.256C378.773 55.592 378.149 54.376 376.901 53.608C375.653 52.808 373.861 52.408 371.525 52.408H360.965V47.56H370.277C372.453 47.56 374.117 47.176 375.269 46.408C376.453 45.64 377.045 44.488 377.045 42.952C377.045 41.384 376.453 40.216 375.269 39.448C374.117 38.68 372.453 38.296 370.277 38.296H361.445V62.104ZM405.544 67.48C402.92 67.48 400.504 67.048 398.296 66.184C396.088 65.32 394.168 64.12 392.536 62.584C390.904 61.016 389.64 59.192 388.744 57.112C387.848 55 387.4 52.696 387.4 50.2C387.4 47.704 387.848 45.416 388.744 43.336C389.64 41.224 390.904 39.4 392.536 37.864C394.168 36.296 396.088 35.08 398.296 34.216C400.504 33.352 402.904 32.92 405.496 32.92C408.12 32.92 410.52 33.352 412.696 34.216C414.904 35.08 416.824 36.296 418.456 37.864C420.088 39.4 421.352 41.224 422.248 43.336C423.144 45.416 423.592 47.704 423.592 50.2C423.592 52.696 423.144 55 422.248 57.112C421.352 59.224 420.088 61.048 418.456 62.584C416.824 64.12 414.904 65.32 412.696 66.184C410.52 67.048 408.136 67.48 405.544 67.48ZM405.496 62.008C407.192 62.008 408.76 61.72 410.2 61.144C411.64 60.568 412.888 59.752 413.944 58.696C415 57.608 415.816 56.36 416.392 54.952C417 53.512 417.304 51.928 417.304 50.2C417.304 48.472 417 46.904 416.392 45.496C415.816 44.056 415 42.808 413.944 41.752C412.888 40.664 411.64 39.832 410.2 39.256C408.76 38.68 407.192 38.392 405.496 38.392C403.8 38.392 402.232 38.68 400.792 39.256C399.384 39.832 398.136 40.664 397.048 41.752C395.992 42.808 395.16 44.056 394.552 45.496C393.976 46.904 393.688 48.472 393.688 50.2C393.688 51.896 393.976 53.464 394.552 54.904C395.16 56.344 395.992 57.608 397.048 58.696C398.104 59.752 399.352 60.568 400.792 61.144C402.232 61.72 403.8 62.008 405.496 62.008ZM442.734 67.48C438.126 67.48 434.51 66.184 431.886 63.592C429.294 61 427.998 57.256 427.998 52.36V33.4H434.238V52.12C434.238 55.576 434.974 58.088 436.446 59.656C437.95 61.224 440.062 62.008 442.782 62.008C445.502 62.008 447.598 61.224 449.07 59.656C450.542 58.088 451.278 55.576 451.278 52.12V33.4H457.422V52.36C457.422 57.256 456.11 61 453.486 63.592C450.894 66.184 447.31 67.48 442.734 67.48ZM479.793 67.48C477.233 67.48 474.849 67.064 472.641 66.232C470.465 65.368 468.561 64.168 466.929 62.632C465.329 61.064 464.081 59.224 463.185 57.112C462.289 55 461.841 52.696 461.841 50.2C461.841 47.704 462.289 45.4 463.185 43.288C464.081 41.176 465.345 39.352 466.977 37.816C468.609 36.248 470.513 35.048 472.689 34.216C474.865 33.352 477.249 32.92 479.841 32.92C482.593 32.92 485.105 33.4 487.377 34.36C489.649 35.288 491.569 36.68 493.137 38.536L489.105 42.328C487.889 41.016 486.529 40.04 485.025 39.4C483.521 38.728 481.889 38.392 480.129 38.392C478.369 38.392 476.753 38.68 475.281 39.256C473.841 39.832 472.577 40.648 471.489 41.704C470.433 42.76 469.601 44.008 468.993 45.448C468.417 46.888 468.129 48.472 468.129 50.2C468.129 51.928 468.417 53.512 468.993 54.952C469.601 56.392 470.433 57.64 471.489 58.696C472.577 59.752 473.841 60.568 475.281 61.144C476.753 61.72 478.369 62.008 480.129 62.008C481.889 62.008 483.521 61.688 485.025 61.048C486.529 60.376 487.889 59.368 489.105 58.024L493.137 61.864C491.569 63.688 489.649 65.08 487.377 66.04C485.105 67 482.577 67.48 479.793 67.48ZM477.537 77.944C476.673 77.944 475.873 77.848 475.137 77.656C474.401 77.496 473.729 77.256 473.121 76.936L474.225 74.104C474.737 74.36 475.249 74.552 475.761 74.68C476.305 74.808 476.881 74.872 477.489 74.872C478.417 74.872 479.073 74.712 479.457 74.392C479.841 74.072 480.033 73.656 480.033 73.144C480.033 72.664 479.825 72.28 479.409 71.992C479.025 71.704 478.385 71.56 477.489 71.56H476.001L477.297 66.664H480.561L479.889 69.352C481.297 69.512 482.337 69.96 483.009 70.696C483.713 71.464 484.065 72.36 484.065 73.384C484.065 74.792 483.473 75.896 482.289 76.696C481.105 77.528 479.521 77.944 477.537 77.944ZM491.741 67L506.861 33.4H513.005L528.173 67H521.645L508.637 36.712H511.133L498.173 67H491.741ZM498.701 59.224L500.381 54.328H518.525L520.205 59.224H498.701ZM540.942 67.48C538.318 67.48 535.806 67.112 533.406 66.376C531.006 65.608 529.102 64.632 527.694 63.448L529.854 58.6C531.198 59.656 532.862 60.536 534.846 61.24C536.83 61.944 538.862 62.296 540.942 62.296C542.702 62.296 544.126 62.104 545.214 61.72C546.302 61.336 547.102 60.824 547.614 60.184C548.126 59.512 548.382 58.76 548.382 57.928C548.382 56.904 548.014 56.088 547.278 55.48C546.542 54.84 545.582 54.344 544.398 53.992C543.246 53.608 541.95 53.256 540.51 52.936C539.102 52.616 537.678 52.248 536.238 51.832C534.83 51.384 533.534 50.824 532.35 50.152C531.198 49.448 530.254 48.52 529.518 47.368C528.782 46.216 528.414 44.744 528.414 42.952C528.414 41.128 528.894 39.464 529.854 37.96C530.846 36.424 532.334 35.208 534.318 34.312C536.334 33.384 538.878 32.92 541.95 32.92C543.966 32.92 545.966 33.176 547.95 33.688C549.934 34.2 551.662 34.936 553.134 35.896L551.166 40.744C549.662 39.848 548.11 39.192 546.51 38.776C544.91 38.328 543.374 38.104 541.902 38.104C540.174 38.104 538.766 38.312 537.678 38.728C536.622 39.144 535.838 39.688 535.326 40.36C534.846 41.032 534.606 41.8 534.606 42.664C534.606 43.688 534.958 44.52 535.662 45.16C536.398 45.768 537.342 46.248 538.494 46.6C539.678 46.952 540.99 47.304 542.43 47.656C543.87 47.976 545.294 48.344 546.702 48.76C548.142 49.176 549.438 49.72 550.59 50.392C551.774 51.064 552.718 51.976 553.422 53.128C554.158 54.28 554.526 55.736 554.526 57.496C554.526 59.288 554.03 60.952 553.038 62.488C552.078 63.992 550.59 65.208 548.574 66.136C546.558 67.032 544.014 67.48 540.942 67.48ZM570.14 67V33.4H585.884C589.916 33.4 592.988 34.2 595.1 35.8C597.212 37.368 598.268 39.48 598.268 42.136C598.268 43.928 597.852 45.464 597.02 46.744C596.188 47.992 595.068 48.968 593.66 49.672C592.284 50.344 590.78 50.68 589.148 50.68L590.012 48.952C591.9 48.952 593.596 49.304 595.1 50.008C596.604 50.68 597.788 51.672 598.652 52.984C599.548 54.296 599.996 55.928 599.996 57.88C599.996 60.76 598.892 63 596.684 64.6C594.476 66.2 591.196 67 586.844 67H570.14ZM576.38 62.104H586.46C588.796 62.104 590.588 61.72 591.836 60.952C593.084 60.184 593.708 58.952 593.708 57.256C593.708 55.592 593.084 54.376 591.836 53.608C590.588 52.808 588.796 52.408 586.46 52.408H575.9V47.56H585.212C587.388 47.56 589.052 47.176 590.204 46.408C591.388 45.64 591.98 44.488 591.98 42.952C591.98 41.384 591.388 40.216 590.204 39.448C589.052 38.68 587.388 38.296 585.212 38.296H576.38V62.104ZM619.183 67.48C614.575 67.48 610.959 66.184 608.335 63.592C605.743 61 604.447 57.256 604.447 52.36V33.4H610.687V52.12C610.687 55.576 611.423 58.088 612.895 59.656C614.399 61.224 616.511 62.008 619.231 62.008C621.951 62.008 624.047 61.224 625.519 59.656C626.991 58.088 627.727 55.576 627.727 52.12V33.4H633.871V52.36C633.871 57.256 632.559 61 629.935 63.592C627.343 66.184 623.759 67.48 619.183 67.48ZM651.106 67.48C648.482 67.48 645.97 67.112 643.57 66.376C641.17 65.608 639.266 64.632 637.858 63.448L640.018 58.6C641.362 59.656 643.026 60.536 645.01 61.24C646.994 61.944 649.026 62.296 651.106 62.296C652.866 62.296 654.29 62.104 655.378 61.72C656.466 61.336 657.266 60.824 657.778 60.184C658.29 59.512 658.546 58.76 658.546 57.928C658.546 56.904 658.178 56.088 657.442 55.48C656.706 54.84 655.746 54.344 654.562 53.992C653.41 53.608 652.114 53.256 650.674 52.936C649.266 52.616 647.842 52.248 646.402 51.832C644.994 51.384 643.698 50.824 642.514 50.152C641.362 49.448 640.418 48.52 639.682 47.368C638.946 46.216 638.578 44.744 638.578 42.952C638.578 41.128 639.058 39.464 640.018 37.96C641.01 36.424 642.498 35.208 644.482 34.312C646.498 33.384 649.042 32.92 652.114 32.92C654.13 32.92 656.13 33.176 658.114 33.688C660.098 34.2 661.826 34.936 663.298 35.896L661.33 40.744C659.826 39.848 658.274 39.192 656.674 38.776C655.074 38.328 653.538 38.104 652.066 38.104C650.338 38.104 648.93 38.312 647.842 38.728C646.786 39.144 646.002 39.688 645.49 40.36C645.01 41.032 644.77 41.8 644.77 42.664C644.77 43.688 645.122 44.52 645.826 45.16C646.562 45.768 647.506 46.248 648.658 46.6C649.842 46.952 651.154 47.304 652.594 47.656C654.034 47.976 655.458 48.344 656.866 48.76C658.306 49.176 659.602 49.72 660.754 50.392C661.938 51.064 662.882 51.976 663.586 53.128C664.322 54.28 664.69 55.736 664.69 57.496C664.69 59.288 664.194 60.952 663.202 62.488C662.242 63.992 660.754 65.208 658.738 66.136C656.722 67.032 654.178 67.48 651.106 67.48ZM664.206 67L679.326 33.4H685.47L700.638 67H694.11L681.102 36.712H683.598L670.638 67H664.206ZM671.166 59.224L672.846 54.328H690.99L692.67 59.224H671.166ZM708.119 67V38.68H696.983V33.4H725.495V38.68H714.359V67H708.119ZM743.534 67.48C740.91 67.48 738.494 67.048 736.286 66.184C734.078 65.32 732.158 64.12 730.526 62.584C728.894 61.016 727.63 59.192 726.734 57.112C725.838 55 725.39 52.696 725.39 50.2C725.39 47.704 725.838 45.416 726.734 43.336C727.63 41.224 728.894 39.4 730.526 37.864C732.158 36.296 734.078 35.08 736.286 34.216C738.494 33.352 740.894 32.92 743.486 32.92C746.11 32.92 748.51 33.352 750.686 34.216C752.894 35.08 754.814 36.296 756.446 37.864C758.078 39.4 759.342 41.224 760.238 43.336C761.134 45.416 761.582 47.704 761.582 50.2C761.582 52.696 761.134 55 760.238 57.112C759.342 59.224 758.078 61.048 756.446 62.584C754.814 64.12 752.894 65.32 750.686 66.184C748.51 67.048 746.126 67.48 743.534 67.48ZM743.486 62.008C745.182 62.008 746.75 61.72 748.19 61.144C749.63 60.568 750.878 59.752 751.934 58.696C752.99 57.608 753.806 56.36 754.382 54.952C754.99 53.512 755.294 51.928 755.294 50.2C755.294 48.472 754.99 46.904 754.382 45.496C753.806 44.056 752.99 42.808 751.934 41.752C750.878 40.664 749.63 39.832 748.19 39.256C746.75 38.68 745.182 38.392 743.486 38.392C741.79 38.392 740.222 38.68 738.782 39.256C737.374 39.832 736.126 40.664 735.038 41.752C733.982 42.808 733.15 44.056 732.542 45.496C731.966 46.904 731.678 48.472 731.678 50.2C731.678 51.896 731.966 53.464 732.542 54.904C733.15 56.344 733.982 57.608 735.038 58.696C736.094 59.752 737.342 60.568 738.782 61.144C740.222 61.72 741.79 62.008 743.486 62.008Z" fill="#B1B1B1" fill-opacity="0.5"/>
<path d="M4.512 91V57.4H10.752V85.72H28.32V91H4.512ZM37.0864 71.368H53.7904V76.504H37.0864V71.368ZM37.5664 85.768H56.5264V91H31.3264V57.4H55.8544V62.632H37.5664V85.768ZM77.3066 91.48C74.6826 91.48 72.2666 91.048 70.0586 90.184C67.8506 89.32 65.9306 88.12 64.2986 86.584C62.6666 85.016 61.4026 83.192 60.5066 81.112C59.6106 79 59.1626 76.696 59.1626 74.2C59.1626 71.704 59.6106 69.416 60.5066 67.336C61.4026 65.224 62.6666 63.4 64.2986 61.864C65.9306 60.296 67.8506 59.08 70.0586 58.216C72.2666 57.352 74.6666 56.92 77.2586 56.92C79.8826 56.92 82.2826 57.352 84.4586 58.216C86.6666 59.08 88.5866 60.296 90.2186 61.864C91.8506 63.4 93.1146 65.224 94.0106 67.336C94.9066 69.416 95.3546 71.704 95.3546 74.2C95.3546 76.696 94.9066 79 94.0106 81.112C93.1146 83.224 91.8506 85.048 90.2186 86.584C88.5866 88.12 86.6666 89.32 84.4586 90.184C82.2826 91.048 79.8986 91.48 77.3066 91.48ZM77.2586 86.008C78.9546 86.008 80.5226 85.72 81.9626 85.144C83.4026 84.568 84.6506 83.752 85.7066 82.696C86.7626 81.608 87.5786 80.36 88.1546 78.952C88.7626 77.512 89.0666 75.928 89.0666 74.2C89.0666 72.472 88.7626 70.904 88.1546 69.496C87.5786 68.056 86.7626 66.808 85.7066 65.752C84.6506 64.664 83.4026 63.832 81.9626 63.256C80.5226 62.68 78.9546 62.392 77.2586 62.392C75.5626 62.392 73.9946 62.68 72.5546 63.256C71.1466 63.832 69.8986 64.664 68.8106 65.752C67.7546 66.808 66.9226 68.056 66.3146 69.496C65.7386 70.904 65.4506 72.472 65.4506 74.2C65.4506 75.896 65.7386 77.464 66.3146 78.904C66.9226 80.344 67.7546 81.608 68.8106 82.696C69.8666 83.752 71.1146 84.568 72.5546 85.144C73.9946 85.72 75.5626 86.008 77.2586 86.008ZM100.049 91V57.4H105.185L126.257 83.272H123.713V57.4H129.905V91H124.769L103.697 65.128H106.241V91H100.049ZM132.236 91L147.356 57.4H153.5L168.668 91H162.14L149.132 60.712H151.628L138.668 91H132.236ZM139.196 83.224L140.876 78.328H159.02L160.7 83.224H139.196ZM171.021 91V57.4H184.845C187.821 57.4 190.365 57.88 192.477 58.84C194.621 59.8 196.269 61.176 197.421 62.968C198.573 64.76 199.149 66.888 199.149 69.352C199.149 71.816 198.573 73.944 197.421 75.736C196.269 77.496 194.621 78.856 192.477 79.816C190.365 80.744 187.821 81.208 184.845 81.208H174.477L177.261 78.376V91H171.021ZM193.005 91L184.509 78.808H191.181L199.725 91H193.005ZM177.261 79.048L174.477 76.072H184.557C187.309 76.072 189.373 75.48 190.749 74.296C192.157 73.112 192.861 71.464 192.861 69.352C192.861 67.208 192.157 65.56 190.749 64.408C189.373 63.256 187.309 62.68 184.557 62.68H174.477L177.261 59.608V79.048ZM204.211 91V57.4H218.899C222.547 57.4 225.747 58.104 228.499 59.512C231.251 60.92 233.395 62.872 234.931 65.368C236.467 67.864 237.235 70.808 237.235 74.2C237.235 77.56 236.467 80.504 234.931 83.032C233.395 85.528 231.251 87.48 228.499 88.888C225.747 90.296 222.547 91 218.899 91H204.211ZM210.451 85.72H218.611C221.139 85.72 223.315 85.24 225.139 84.28C226.995 83.32 228.419 81.976 229.411 80.248C230.435 78.52 230.947 76.504 230.947 74.2C230.947 71.864 230.435 69.848 229.411 68.152C228.419 66.424 226.995 65.08 225.139 64.12C223.315 63.16 221.139 62.68 218.611 62.68H210.451V85.72ZM257.691 91.48C255.067 91.48 252.651 91.048 250.443 90.184C248.235 89.32 246.315 88.12 244.683 86.584C243.051 85.016 241.787 83.192 240.891 81.112C239.995 79 239.547 76.696 239.547 74.2C239.547 71.704 239.995 69.416 240.891 67.336C241.787 65.224 243.051 63.4 244.683 61.864C246.315 60.296 248.235 59.08 250.443 58.216C252.651 57.352 255.051 56.92 257.643 56.92C260.267 56.92 262.667 57.352 264.843 58.216C267.051 59.08 268.971 60.296 270.603 61.864C272.235 63.4 273.499 65.224 274.395 67.336C275.291 69.416 275.739 71.704 275.739 74.2C275.739 76.696 275.291 79 274.395 81.112C273.499 83.224 272.235 85.048 270.603 86.584C268.971 88.12 267.051 89.32 264.843 90.184C262.667 91.048 260.283 91.48 257.691 91.48ZM257.643 86.008C259.339 86.008 260.907 85.72 262.347 85.144C263.787 84.568 265.035 83.752 266.091 82.696C267.147 81.608 267.963 80.36 268.539 78.952C269.147 77.512 269.451 75.928 269.451 74.2C269.451 72.472 269.147 70.904 268.539 69.496C267.963 68.056 267.147 66.808 266.091 65.752C265.035 64.664 263.787 63.832 262.347 63.256C260.907 62.68 259.339 62.392 257.643 62.392C255.947 62.392 254.379 62.68 252.939 63.256C251.531 63.832 250.283 64.664 249.195 65.752C248.139 66.808 247.307 68.056 246.699 69.496C246.123 70.904 245.835 72.472 245.835 74.2C245.835 75.896 246.123 77.464 246.699 78.904C247.307 80.344 248.139 81.608 249.195 82.696C250.251 83.752 251.499 84.568 252.939 85.144C254.379 85.72 255.947 86.008 257.643 86.008ZM291.779 91V57.4H305.603C308.579 57.4 311.123 57.88 313.235 58.84C315.379 59.8 317.027 61.176 318.179 62.968C319.331 64.76 319.907 66.888 319.907 69.352C319.907 71.816 319.331 73.944 318.179 75.736C317.027 77.496 315.379 78.856 313.235 79.816C311.123 80.744 308.579 81.208 305.603 81.208H295.235L298.019 78.376V91H291.779ZM313.763 91L305.267 78.808H311.939L320.483 91H313.763ZM298.019 79.048L295.235 76.072H305.315C308.067 76.072 310.131 75.48 311.507 74.296C312.915 73.112 313.619 71.464 313.619 69.352C313.619 67.208 312.915 65.56 311.507 64.408C310.131 63.256 308.067 62.68 305.315 62.68H295.235L298.019 59.608V79.048ZM330.728 71.368H347.432V76.504H330.728V71.368ZM331.208 85.768H350.168V91H324.968V57.4H349.496V62.632H331.208V85.768ZM355.205 91V57.4H370.949C374.981 57.4 378.053 58.2 380.165 59.8C382.277 61.368 383.333 63.48 383.333 66.136C383.333 67.928 382.917 69.464 382.085 70.744C381.253 71.992 380.133 72.968 378.725 73.672C377.349 74.344 375.845 74.68 374.213 74.68L375.077 72.952C376.965 72.952 378.661 73.304 380.165 74.008C381.669 74.68 382.853 75.672 383.717 76.984C384.613 78.296 385.061 79.928 385.061 81.88C385.061 84.76 383.957 87 381.749 88.6C379.541 90.2 376.261 91 371.909 91H355.205ZM361.445 86.104H371.525C373.861 86.104 375.653 85.72 376.901 84.952C378.149 84.184 378.773 82.952 378.773 81.256C378.773 79.592 378.149 78.376 376.901 77.608C375.653 76.808 373.861 76.408 371.525 76.408H360.965V71.56H370.277C372.453 71.56 374.117 71.176 375.269 70.408C376.453 69.64 377.045 68.488 377.045 66.952C377.045 65.384 376.453 64.216 375.269 63.448C374.117 62.68 372.453 62.296 370.277 62.296H361.445V86.104ZM405.544 91.48C402.92 91.48 400.504 91.048 398.296 90.184C396.088 89.32 394.168 88.12 392.536 86.584C390.904 85.016 389.64 83.192 388.744 81.112C387.848 79 387.4 76.696 387.4 74.2C387.4 71.704 387.848 69.416 388.744 67.336C389.64 65.224 390.904 63.4 392.536 61.864C394.168 60.296 396.088 59.08 398.296 58.216C400.504 57.352 402.904 56.92 405.496 56.92C408.12 56.92 410.52 57.352 412.696 58.216C414.904 59.08 416.824 60.296 418.456 61.864C420.088 63.4 421.352 65.224 422.248 67.336C423.144 69.416 423.592 71.704 423.592 74.2C423.592 76.696 423.144 79 422.248 81.112C421.352 83.224 420.088 85.048 418.456 86.584C416.824 88.12 414.904 89.32 412.696 90.184C410.52 91.048 408.136 91.48 405.544 91.48ZM405.496 86.008C407.192 86.008 408.76 85.72 410.2 85.144C411.64 84.568 412.888 83.752 413.944 82.696C415 81.608 415.816 80.36 416.392 78.952C417 77.512 417.304 75.928 417.304 74.2C417.304 72.472 417 70.904 416.392 69.496C415.816 68.056 415 66.808 413.944 65.752C412.888 64.664 411.64 63.832 410.2 63.256C408.76 62.68 407.192 62.392 405.496 62.392C403.8 62.392 402.232 62.68 400.792 63.256C399.384 63.832 398.136 64.664 397.048 65.752C395.992 66.808 395.16 68.056 394.552 69.496C393.976 70.904 393.688 72.472 393.688 74.2C393.688 75.896 393.976 77.464 394.552 78.904C395.16 80.344 395.992 81.608 397.048 82.696C398.104 83.752 399.352 84.568 400.792 85.144C402.232 85.72 403.8 86.008 405.496 86.008ZM442.734 91.48C438.126 91.48 434.51 90.184 431.886 87.592C429.294 85 427.998 81.256 427.998 76.36V57.4H434.238V76.12C434.238 79.576 434.974 82.088 436.446 83.656C437.95 85.224 440.062 86.008 442.782 86.008C445.502 86.008 447.598 85.224 449.07 83.656C450.542 82.088 451.278 79.576 451.278 76.12V57.4H457.422V76.36C457.422 81.256 456.11 85 453.486 87.592C450.894 90.184 447.31 91.48 442.734 91.48ZM479.793 91.48C477.233 91.48 474.849 91.064 472.641 90.232C470.465 89.368 468.561 88.168 466.929 86.632C465.329 85.064 464.081 83.224 463.185 81.112C462.289 79 461.841 76.696 461.841 74.2C461.841 71.704 462.289 69.4 463.185 67.288C464.081 65.176 465.345 63.352 466.977 61.816C468.609 60.248 470.513 59.048 472.689 58.216C474.865 57.352 477.249 56.92 479.841 56.92C482.593 56.92 485.105 57.4 487.377 58.36C489.649 59.288 491.569 60.68 493.137 62.536L489.105 66.328C487.889 65.016 486.529 64.04 485.025 63.4C483.521 62.728 481.889 62.392 480.129 62.392C478.369 62.392 476.753 62.68 475.281 63.256C473.841 63.832 472.577 64.648 471.489 65.704C470.433 66.76 469.601 68.008 468.993 69.448C468.417 70.888 468.129 72.472 468.129 74.2C468.129 75.928 468.417 77.512 468.993 78.952C469.601 80.392 470.433 81.64 471.489 82.696C472.577 83.752 473.841 84.568 475.281 85.144C476.753 85.72 478.369 86.008 480.129 86.008C481.889 86.008 483.521 85.688 485.025 85.048C486.529 84.376 487.889 83.368 489.105 82.024L493.137 85.864C491.569 87.688 489.649 89.08 487.377 90.04C485.105 91 482.577 91.48 479.793 91.48ZM477.537 101.944C476.673 101.944 475.873 101.848 475.137 101.656C474.401 101.496 473.729 101.256 473.121 100.936L474.225 98.104C474.737 98.36 475.249 98.552 475.761 98.68C476.305 98.808 476.881 98.872 477.489 98.872C478.417 98.872 479.073 98.712 479.457 98.392C479.841 98.072 480.033 97.656 480.033 97.144C480.033 96.664 479.825 96.28 479.409 95.992C479.025 95.704 478.385 95.56 477.489 95.56H476.001L477.297 90.664H480.561L479.889 93.352C481.297 93.512 482.337 93.96 483.009 94.696C483.713 95.464 484.065 96.36 484.065 97.384C484.065 98.792 483.473 99.896 482.289 100.696C481.105 101.528 479.521 101.944 477.537 101.944ZM491.741 91L506.861 57.4H513.005L528.173 91H521.645L508.637 60.712H511.133L498.173 91H491.741ZM498.701 83.224L500.381 78.328H518.525L520.205 83.224H498.701ZM540.942 91.48C538.318 91.48 535.806 91.112 533.406 90.376C531.006 89.608 529.102 88.632 527.694 87.448L529.854 82.6C531.198 83.656 532.862 84.536 534.846 85.24C536.83 85.944 538.862 86.296 540.942 86.296C542.702 86.296 544.126 86.104 545.214 85.72C546.302 85.336 547.102 84.824 547.614 84.184C548.126 83.512 548.382 82.76 548.382 81.928C548.382 80.904 548.014 80.088 547.278 79.48C546.542 78.84 545.582 78.344 544.398 77.992C543.246 77.608 541.95 77.256 540.51 76.936C539.102 76.616 537.678 76.248 536.238 75.832C534.83 75.384 533.534 74.824 532.35 74.152C531.198 73.448 530.254 72.52 529.518 71.368C528.782 70.216 528.414 68.744 528.414 66.952C528.414 65.128 528.894 63.464 529.854 61.96C530.846 60.424 532.334 59.208 534.318 58.312C536.334 57.384 538.878 56.92 541.95 56.92C543.966 56.92 545.966 57.176 547.95 57.688C549.934 58.2 551.662 58.936 553.134 59.896L551.166 64.744C549.662 63.848 548.11 63.192 546.51 62.776C544.91 62.328 543.374 62.104 541.902 62.104C540.174 62.104 538.766 62.312 537.678 62.728C536.622 63.144 535.838 63.688 535.326 64.36C534.846 65.032 534.606 65.8 534.606 66.664C534.606 67.688 534.958 68.52 535.662 69.16C536.398 69.768 537.342 70.248 538.494 70.6C539.678 70.952 540.99 71.304 542.43 71.656C543.87 71.976 545.294 72.344 546.702 72.76C548.142 73.176 549.438 73.72 550.59 74.392C551.774 75.064 552.718 75.976 553.422 77.128C554.158 78.28 554.526 79.736 554.526 81.496C554.526 83.288 554.03 84.952 553.038 86.488C552.078 87.992 550.59 89.208 548.574 90.136C546.558 91.032 544.014 91.48 540.942 91.48ZM570.14 91V57.4H585.884C589.916 57.4 592.988 58.2 595.1 59.8C597.212 61.368 598.268 63.48 598.268 66.136C598.268 67.928 597.852 69.464 597.02 70.744C596.188 71.992 595.068 72.968 593.66 73.672C592.284 74.344 590.78 74.68 589.148 74.68L590.012 72.952C591.9 72.952 593.596 73.304 595.1 74.008C596.604 74.68 597.788 75.672 598.652 76.984C599.548 78.296 599.996 79.928 599.996 81.88C599.996 84.76 598.892 87 596.684 88.6C594.476 90.2 591.196 91 586.844 91H570.14ZM576.38 86.104H586.46C588.796 86.104 590.588 85.72 591.836 84.952C593.084 84.184 593.708 82.952 593.708 81.256C593.708 79.592 593.084 78.376 591.836 77.608C590.588 76.808 588.796 76.408 586.46 76.408H575.9V71.56H585.212C587.388 71.56 589.052 71.176 590.204 70.408C591.388 69.64 591.98 68.488 591.98 66.952C591.98 65.384 591.388 64.216 590.204 63.448C589.052 62.68 587.388 62.296 585.212 62.296H576.38V86.104ZM619.183 91.48C614.575 91.48 610.959 90.184 608.335 87.592C605.743 85 604.447 81.256 604.447 76.36V57.4H610.687V76.12C610.687 79.576 611.423 82.088 612.895 83.656C614.399 85.224 616.511 86.008 619.231 86.008C621.951 86.008 624.047 85.224 625.519 83.656C626.991 82.088 627.727 79.576 627.727 76.12V57.4H633.871V76.36C633.871 81.256 632.559 85 629.935 87.592C627.343 90.184 623.759 91.48 619.183 91.48ZM651.106 91.48C648.482 91.48 645.97 91.112 643.57 90.376C641.17 89.608 639.266 88.632 637.858 87.448L640.018 82.6C641.362 83.656 643.026 84.536 645.01 85.24C646.994 85.944 649.026 86.296 651.106 86.296C652.866 86.296 654.29 86.104 655.378 85.72C656.466 85.336 657.266 84.824 657.778 84.184C658.29 83.512 658.546 82.76 658.546 81.928C658.546 80.904 658.178 80.088 657.442 79.48C656.706 78.84 655.746 78.344 654.562 77.992C653.41 77.608 652.114 77.256 650.674 76.936C649.266 76.616 647.842 76.248 646.402 75.832C644.994 75.384 643.698 74.824 642.514 74.152C641.362 73.448 640.418 72.52 639.682 71.368C638.946 70.216 638.578 68.744 638.578 66.952C638.578 65.128 639.058 63.464 640.018 61.96C641.01 60.424 642.498 59.208 644.482 58.312C646.498 57.384 649.042 56.92 652.114 56.92C654.13 56.92 656.13 57.176 658.114 57.688C660.098 58.2 661.826 58.936 663.298 59.896L661.33 64.744C659.826 63.848 658.274 63.192 656.674 62.776C655.074 62.328 653.538 62.104 652.066 62.104C650.338 62.104 648.93 62.312 647.842 62.728C646.786 63.144 646.002 63.688 645.49 64.36C645.01 65.032 644.77 65.8 644.77 66.664C644.77 67.688 645.122 68.52 645.826 69.16C646.562 69.768 647.506 70.248 648.658 70.6C649.842 70.952 651.154 71.304 652.594 71.656C654.034 71.976 655.458 72.344 656.866 72.76C658.306 73.176 659.602 73.72 660.754 74.392C661.938 75.064 662.882 75.976 663.586 77.128C664.322 78.28 664.69 79.736 664.69 81.496C664.69 83.288 664.194 84.952 663.202 86.488C662.242 87.992 660.754 89.208 658.738 90.136C656.722 91.032 654.178 91.48 651.106 91.48ZM664.206 91L679.326 57.4H685.47L700.638 91H694.11L681.102 60.712H683.598L670.638 91H664.206ZM671.166 83.224L672.846 78.328H690.99L692.67 83.224H671.166ZM708.119 91V62.68H696.983V57.4H725.495V62.68H714.359V91H708.119ZM743.534 91.48C740.91 91.48 738.494 91.048 736.286 90.184C734.078 89.32 732.158 88.12 730.526 86.584C728.894 85.016 727.63 83.192 726.734 81.112C725.838 79 725.39 76.696 725.39 74.2C725.39 71.704 725.838 69.416 726.734 67.336C727.63 65.224 728.894 63.4 730.526 61.864C732.158 60.296 734.078 59.08 736.286 58.216C738.494 57.352 740.894 56.92 743.486 56.92C746.11 56.92 748.51 57.352 750.686 58.216C752.894 59.08 754.814 60.296 756.446 61.864C758.078 63.4 759.342 65.224 760.238 67.336C761.134 69.416 761.582 71.704 761.582 74.2C761.582 76.696 761.134 79 760.238 81.112C759.342 83.224 758.078 85.048 756.446 86.584C754.814 88.12 752.894 89.32 750.686 90.184C748.51 91.048 746.126 91.48 743.534 91.48ZM743.486 86.008C745.182 86.008 746.75 85.72 748.19 85.144C749.63 84.568 750.878 83.752 751.934 82.696C752.99 81.608 753.806 80.36 754.382 78.952C754.99 77.512 755.294 75.928 755.294 74.2C755.294 72.472 754.99 70.904 754.382 69.496C753.806 68.056 752.99 66.808 751.934 65.752C750.878 64.664 749.63 63.832 748.19 63.256C746.75 62.68 745.182 62.392 743.486 62.392C741.79 62.392 740.222 62.68 738.782 63.256C737.374 63.832 736.126 64.664 735.038 65.752C733.982 66.808 733.15 68.056 732.542 69.496C731.966 70.904 731.678 72.472 731.678 74.2C731.678 75.896 731.966 77.464 732.542 78.904C733.15 80.344 733.982 81.608 735.038 82.696C736.094 83.752 737.342 84.568 738.782 85.144C740.222 85.72 741.79 86.008 743.486 86.008Z" fill="white"/>
<path d="M1.02 37.9C3.47333 36.06 5.36667 34.4133 6.7 32.96C8.04667 31.4933 8.72 30.06 8.72 28.66C8.72 27.74 8.48667 27.0067 8.02 26.46C7.56667 25.9 6.82 25.62 5.78 25.62C4.76667 25.62 3.98 25.94 3.42 26.58C2.87333 27.2067 2.56667 28.0467 2.5 29.1H1.14C1.22 27.62 1.67333 26.4733 2.5 25.66C3.34 24.8333 4.43333 24.42 5.78 24.42C7.07333 24.42 8.12 24.7867 8.92 25.52C9.72 26.24 10.12 27.2667 10.12 28.6C10.12 30.2133 9.44667 31.78 8.1 33.3C6.76667 34.8067 5.12 36.28 3.16 37.72H10.56V38.9H1.02V37.9ZM12.7453 31.7C12.7453 29.4067 13.0986 27.6267 13.8053 26.36C14.512 25.0933 15.7786 24.46 17.6053 24.46C19.432 24.46 20.6986 25.0933 21.4053 26.36C22.112 27.6267 22.4653 29.4067 22.4653 31.7C22.4653 34.0333 22.112 35.84 21.4053 37.12C20.6986 38.4 19.432 39.04 17.6053 39.04C15.7653 39.04 14.492 38.4 13.7853 37.12C13.092 35.84 12.7453 34.0333 12.7453 31.7ZM21.0853 31.7C21.0853 30.46 20.9986 29.4133 20.8253 28.56C20.652 27.7067 20.312 27.02 19.8053 26.5C19.2986 25.98 18.5653 25.72 17.6053 25.72C16.6453 25.72 15.912 25.98 15.4053 26.5C14.8986 27.02 14.5586 27.7067 14.3853 28.56C14.212 29.4133 14.1253 30.46 14.1253 31.7C14.1253 32.98 14.212 34.0533 14.3853 34.92C14.5586 35.7733 14.8986 36.46 15.4053 36.98C15.912 37.5 16.6453 37.76 17.6053 37.76C18.5653 37.76 19.2986 37.5 19.8053 36.98C20.312 36.46 20.652 35.7733 20.8253 34.92C20.9986 34.0533 21.0853 32.98 21.0853 31.7ZM25.0695 31.7C25.0695 29.4067 25.4229 27.6267 26.1295 26.36C26.8362 25.0933 28.1029 24.46 29.9295 24.46C31.7562 24.46 33.0229 25.0933 33.7295 26.36C34.4362 27.6267 34.7895 29.4067 34.7895 31.7C34.7895 34.0333 34.4362 35.84 33.7295 37.12C33.0229 38.4 31.7562 39.04 29.9295 39.04C28.0895 39.04 26.8162 38.4 26.1095 37.12C25.4162 35.84 25.0695 34.0333 25.0695 31.7ZM33.4095 31.7C33.4095 30.46 33.3229 29.4133 33.1495 28.56C32.9762 27.7067 32.6362 27.02 32.1295 26.5C31.6229 25.98 30.8895 25.72 29.9295 25.72C28.9695 25.72 28.2362 25.98 27.7295 26.5C27.2229 27.02 26.8829 27.7067 26.7095 28.56C26.5362 29.4133 26.4495 30.46 26.4495 31.7C26.4495 32.98 26.5362 34.0533 26.7095 34.92C26.8829 35.7733 27.2229 36.46 27.7295 36.98C28.2362 37.5 28.9695 37.76 29.9295 37.76C30.8895 37.76 31.6229 37.5 32.1295 36.98C32.6362 36.46 32.9762 35.7733 33.1495 34.92C33.3229 34.0533 33.4095 32.98 33.4095 31.7ZM36.7738 35.6V34.54L44.0538 24.74H45.7138V34.38H47.8537V35.6H45.7138V39H44.3338V35.6H36.7738ZM44.3938 26.28L38.3938 34.38H44.3938V26.28Z" fill="white"/>
</svg>
